<?xml version="1.0" encoding="utf-8" standalone="no"?>
<!-- Creator: Esri ArcMap 10.5.0.6491 -->
<!DOCTYPE svg PUBLIC "-//W3C//DTD SVG 1.1//EN"  "http://www.w3.org/Graphics/SVG/1.1/DTD/svg11.dtd">
<svg width="610.49764pt" height="428.25827pt" viewBox="0 0 610.49764 428.25827" enable-background="new 0 0 610.49764 428.25827"
	version="1.1" xmlns="http://www.w3.org/2000/svg" xmlns:xlink="http://www.w3.org/1999/xlink" >
	<g id="Layers">
		<g id="Jalan_Arteri">
			<clipPath id="SVG_CP_1">
				<path d="M0,428.25827L0,0L610.48202,0L610.48202,428.25827L0,428.25827z"/>
			</clipPath>
			<path clip-path="url(#SVG_CP_1)" fill="none" stroke="#319400" stroke-width="0.95988" stroke-miterlimit="10" stroke-linecap="round" stroke-linejoin="round" d="
				M69.35114,204.29026L72.47074,203.81014L76.79019,203.33002L135.58268,221.81457L138.46231,221.09439L154.78023,210.05167L169.17839,201.16949
				L191.0156,182.68494L196.29493,176.68347L198.21468,175.48317L202.29416,174.28287L207.33352,173.08258L213.81269,171.64222L
				221.49171,169.24163L225.57119,168.04134L227.73091,167.80128L231.57042,168.2814L237.08972,169.00158L242.12907,169.48169L245.48864,169.00158
				L249.32815,168.04134L253.40763,166.60098L274.28496,157.47874L277.8845,156.27845L280.52417,156.27845L284.12371,156.5185L287.48328,157.47874
				L293.24254,160.11939L305.72095,165.88081L311.24024,167.80128L320.11911,172.12234L322.5188,175.00305L323.95862,176.20335L
				333.79736,180.28435L339.07669,180.52441L344.83595,181.48465L352.03503,183.64518L358.99414,184.36535L364.51344,185.32559L
				371.23258,186.52589L376.51191,187.24606L379.15157,186.04577L380.59138,185.56565L385.63074,185.80571L393.54973,186.52589L
				410.58755,188.68642L414.66703,188.92648L416.82676,188.44636L418.74651,187.96624L420.66627,187.24606L423.06596,186.76595L
				424.74574,186.76595L427.38541,186.76595L431.70486,187.24606L435.3044,187.48612L437.70409,187.96624L446.10302,188.44636L452.10225,188.92648
				L460.50118,189.64665L466.50041,189.64665L470.57989,188.92648L473.21955,188.44636L475.37928,188.2063L477.05906,189.16654L
				479.45876,193.72766L479.21879,196.60837L477.539,200.68937L474.89934,205.25049L480.41863,216.77333L485.93793,229.97658L486.89781,231.65699
				L487.61771,233.09734L488.57759,234.29764L490.01741,235.49793L490.73731,236.45817L493.85692,237.17835L496.01664,238.13858
				L498.17636,239.09882L500.81603,240.05906L502.73578,241.01929L507.05523,241.01929L512.09459,241.25935L515.21419,241.73947
				L519.0537,243.41988L524.09305,246.06053L528.17253,246.30059L533.69183,247.981L537.29137,250.38159L542.81066,252.78219L548.56993,254.70266
				L552.64941,254.94272L556.72889,254.70266"/>
		</g>
	</g>
</svg>
