<?xml version="1.0" encoding="utf-8" standalone="no"?>
<!-- Creator: Esri ArcMap 10.5.0.6491 -->
<!DOCTYPE svg PUBLIC "-//W3C//DTD SVG 1.1//EN"  "http://www.w3.org/Graphics/SVG/1.1/DTD/svg11.dtd">
<svg width="610.49764pt" height="428.25827pt" viewBox="0 0 610.49764 428.25827" enable-background="new 0 0 610.49764 428.25827"
	version="1.1" xmlns="http://www.w3.org/2000/svg" xmlns:xlink="http://www.w3.org/1999/xlink" >
	<g id="Layers">
		<g id="Jalan_Kereta_Api">
			<clipPath id="SVG_CP_1">
				<path d="M0,428.25827L0,0L610.48202,0L610.48202,428.25827L0,428.25827z"/>
			</clipPath>
			<path clip-path="url(#SVG_CP_1)" fill="none" stroke="#009C43" stroke-width="0.95988" stroke-miterlimit="10" stroke-linecap="round" stroke-linejoin="round" d="
				M436.0243,375.93248L427.62538,373.77195L424.26581,372.57165L420.18633,370.41112L418.0266,367.53041L415.86688,363.44941L414.18709,359.12835
				L414.18709,353.84705L415.38694,350.48622L416.82676,346.40522L419.70639,340.16368L421.1462,336.08268L422.34605,332.96191L
				423.06596,329.84114L422.58602,325.52008L421.1462,322.63937L418.50654,319.5186L413.22722,315.19754L407.46795,311.83671L401.22875,307.03553
				L393.54973,301.27411L388.2704,300.31388L382.27117,299.11358L374.59215,296.95305L280.52417,267.18573L195.57502,241.97953L
				193.65526,238.85876L194.37517,230.45669L196.5349,226.61575L202.29416,221.57451"/>
			<path clip-path="url(#SVG_CP_1)" fill="none" stroke="#009C43" stroke-width="0.95988" stroke-miterlimit="10" stroke-linecap="round" stroke-linejoin="round" d="
				M98.14746,243.9L202.29416,221.57451L268.28573,207.89114L276.44469,205.49055L281.24407,205.73061L286.76337,204.0502L309.08052,199.72913
				L312.92003,199.24902L332.11758,194.68789L339.31666,193.00748L343.39614,191.08701L348.43549,184.84547L350.83519,178.60394
				L351.55509,170.92205L350.11528,164.20039L348.91543,157.23868L347.95555,152.4375L346.27577,148.83661L344.35601,145.23573L
				340.75647,141.39478L336.19706,138.75413L331.39767,133.95295L328.0381,128.91171L325.39843,123.87047L322.27883,118.82923L319.87914,114.26811
				L318.19935,110.18711L316.03963,104.42569L314.83978,99.86457L313.39997,94.82333L311.24024,88.58179L308.84055,80.41978L305.72095,70.57736
				L302.12141,56.65394L285.56352,2.64065"/>
			<path clip-path="url(#SVG_CP_1)" fill="none" stroke="#009C43" stroke-width="0.95988" stroke-miterlimit="10" stroke-linecap="round" stroke-linejoin="round" d="
				M348.43549,184.84547L347.71558,187.72618L348.19552,189.64665L349.1554,191.80719L351.07515,194.68789L353.71482,196.12825L
				357.31436,197.5686L364.27347,199.24902L375.07209,200.92943L381.07132,202.60984L387.07056,205.49055L389.47025,207.65108L391.15004,209.57156
				L394.50961,213.65256L396.9093,216.53327L399.30899,219.41398L402.90853,221.57451L407.22798,224.45522L438.90394,234.29764L
				447.54283,238.13858L481.85845,245.1003L488.33762,246.30059L506.09535,251.82195L550.24971,268.62608"/>
			<path clip-path="url(#SVG_CP_1)" fill="none" stroke="#009C43" stroke-width="0.95988" stroke-miterlimit="10" stroke-linecap="round" stroke-linejoin="round" d="
				M281.24407,205.73061L293.72248,205.73061L307.16076,202.8499L314.83978,200.68937L337.63687,195.64813L342.43626,195.16801L
				351.07515,194.68789"/>
			<path clip-path="url(#SVG_CP_1)" fill="none" stroke="#009C43" stroke-width="0.95988" stroke-miterlimit="10" stroke-linecap="round" stroke-linejoin="round" d="
				M357.31436,197.5686L351.55509,197.5686L339.07669,195.64813"/>
		</g>
	</g>
</svg>
