<?xml version="1.0" encoding="utf-8" standalone="no"?>
<!-- Creator: Esri ArcMap 10.5.0.6491 -->
<!DOCTYPE svg PUBLIC "-//W3C//DTD SVG 1.1//EN"  "http://www.w3.org/Graphics/SVG/1.1/DTD/svg11.dtd">
<svg width="610.49764pt" height="428.25827pt" viewBox="0 0 610.49764 428.25827" enable-background="new 0 0 610.49764 428.25827"
	version="1.1" xmlns="http://www.w3.org/2000/svg" xmlns:xlink="http://www.w3.org/1999/xlink" >
	<g id="Layers">
		<g id="Kec_Laweyan">
			<clipPath id="SVG_CP_1">
				<path d="M0,428.25827L0,0L610.48202,0L610.48202,428.25827L0,428.25827z"/>
			</clipPath>
			<path clip-path="url(#SVG_CP_1)" fill="#FFFF73" fill-rule="evenodd" stroke="none" d="M224.85128,312.31683L224.61131,311.35659
				L224.13137,309.91624L223.41146,308.47589L222.21162,307.27559L221.49171,305.83524L221.49171,304.39488L221.49171,302.47441
				L221.01177,300.794L220.53183,300.31388L219.09201,299.83376L217.41223,298.63347L215.73244,297.67323L213.57272,296.47293L210.69309,295.5127
				L208.29339,293.11211L206.37364,289.51122L205.41376,287.59075L200.85434,287.11063L197.2548,287.59075L193.41529,288.07087L
				190.77563,288.55098L188.13597,289.75128L185.97624,291.43169L183.81652,291.91181L181.89677,290.71152L179.01713,289.51122L
				175.41759,289.0311L171.09814,288.79104L167.4986,289.27116L162.93919,289.99134L160.53949,290.47146L157.89983,290.71152L155.98008,291.43169
				L154.30029,291.67175L153.34041,291.67175L152.38054,290.47146L151.66063,288.79104L151.18069,286.87057L150.22081,286.15039
				L150.22081,288.79104L149.98084,291.19163L149.5009,294.07234L149.98084,295.27264L149.74087,297.19311L149.26093,298.63347L
				148.06109,298.87352L144.70152,299.11358L143.02173,298.63347L141.58192,297.67323L139.90213,296.95305L138.46231,296.71299L
				136.54256,296.47293L135.10274,296.71299L133.66293,297.91329L132.70305,298.63347L131.5032,299.11358L129.10351,301.03406L126.22388,303.91476
				L124.06415,305.83524L118.54486,310.1563L117.34501,310.63642L116.14516,310.1563L114.46538,309.43612L112.30565,308.71595L110.3859,308.956
				L107.50627,310.39636L103.42679,313.51713L101.98697,313.51713L97.66752,313.51713L93.82802,313.27707L89.2686,313.03701L91.18835,310.1563
				L93.10811,306.31535L94.54792,302.95453L96.22771,298.87352L97.18759,296.23287L97.90749,293.83228L98.38743,291.91181L98.38743,289.51122
				L98.14746,287.11063L97.90749,284.71004L97.42756,283.02963L96.94762,281.10915L96.70765,279.42874L96.70765,277.26821L96.70765,274.3875
				L96.94762,271.98691L97.66752,268.86614L97.66752,266.22549L97.66752,264.54508L96.94762,264.30502L95.74777,264.30502L95.02786,263.8249
				L94.78789,262.86467L95.02786,261.90443L97.90749,252.54213L98.38743,249.42136L99.34731,245.82047L99.10734,242.69971L97.66752,240.29911
				L94.30795,238.37864L91.66829,237.65847L71.03093,223.73504L66.95145,222.29469L65.27166,221.57451L67.67136,212.93238L70.07105,206.21073
				L70.31102,203.81014L69.59111,201.64961L67.67136,201.64961L67.19142,200.68937L67.19142,190.84695L67.19142,189.16654L66.47151,187.96624
				L65.03169,187.006L9.11884,172.12234L21.1173,134.19301L21.59724,131.3123L23.03706,131.79242L24.47687,132.27254L26.87657,132.5126
				L30.47611,132.99272L36.47534,134.91319L41.75467,135.87343L45.35421,136.5936L48.95375,137.07372L51.83338,138.03396L54.47304,138.75413
				L56.3928,138.75413L57.83261,138.27402L59.03246,137.31378L61.19218,136.35354L63.59188,135.87343L66.95145,134.91319L70.07105,134.43307
				L72.23077,133.95295L75.11041,132.75266L78.23001,131.79242L80.6297,131.3123L82.06952,131.55236L83.26936,132.27254L85.18912,132.99272
				L86.8689,134.19301L88.78866,134.91319L90.70841,135.39331L92.86814,136.5936L95.26783,138.03396L97.66752,139.23425L100.54716,140.19449
				L104.1467,140.19449L106.78636,141.15472L111.10581,143.31526L116.86507,146.43602L120.22464,147.63632L121.42449,147.39626L
				122.62434,145.95591L123.82418,145.71585L125.264,145.71585L126.70382,145.71585L127.90366,145.47579L128.86354,143.55532L129.58345,141.63484
				L130.30336,140.91467L131.74317,141.15472L139.90213,143.55532L142.54179,144.51555L145.18146,144.75561L148.06109,144.51555
				L150.94072,144.51555L153.82035,144.75561L155.0202,145.47579L156.69998,146.19597L158.1398,146.67608L159.81959,147.39626L163.17916,150.27697
				L164.13903,150.75709L168.93842,150.99715L170.85818,152.19744L171.57808,155.31821L173.0179,157.95886L175.89753,161.07963L
				178.77716,163.48022L181.6568,165.40069L183.57655,166.60098L184.7764,167.56122L185.01637,168.76152L184.53643,170.20187L184.53643,171.88228
				L185.25634,172.84252L186.45618,172.84252L188.13597,172.12234L189.09585,172.3624L190.53566,173.80276L192.21545,174.52293L
				193.89523,174.28287L195.57502,173.32264L197.01483,171.64222L198.93459,169.72175L200.61437,169.24163L202.05419,169.24163L
				204.69385,170.20187L202.05419,172.12234L176.1375,218.45374L170.13827,217.97362L168.45848,223.01486L166.05879,224.93534L162.45925,225.89557
				L153.82035,223.49498L148.781,225.89557L161.49937,229.97658L238.7695,214.37274L233.73014,232.37717L239.00947,233.3374L242.60901,235.25787
				L246.44852,235.25787L246.44852,238.13858L252.20778,240.77923L257.24714,241.73947L257.72708,241.97953L257.72708,244.62018
				L278.60441,248.94124L277.40457,254.22254L279.56429,254.70266L280.76414,255.66289L281.48404,257.58337L288.20319,257.58337
				L289.16306,257.82343L292.52263,259.02372L289.643,267.66585L290.12294,268.86614L290.60288,269.1062L295.64224,270.78661L292.28266,290.71152
				L290.12294,298.39341L285.80349,313.27707L277.64453,312.07677L254.12754,307.99577L251.00794,307.75571L248.84821,307.75571
				L248.36827,308.47589L248.60824,309.19606L249.32815,310.1563L247.64837,309.43612L244.76873,308.47589L239.96935,317.35807L
				232.05036,314.47736L228.21085,313.51713L224.85128,312.31683z"/>
		</g>
		<g id="Labels">
			<g id="Kec_Laweyan_-_Default">
				<g font-family="'Arial'" font-size="1" kerning="0" font-weight="400" fill="#000000" clip-path="url(#SVG_CP_1)" >
					<text text-anchor="start" transform="matrix(7.91899 0 0 7.92195 150.22081 261.18589)" >
						<tspan direction="ltr" unicode-bidi="embed" x="0 ">K</tspan>
						<tspan direction="ltr" unicode-bidi="embed" x="0.66692 ">e</tspan>
						<tspan direction="ltr" unicode-bidi="embed" x="1.21257 ">c</tspan>
						<tspan direction="ltr" unicode-bidi="embed" x="1.72792 ">a</tspan>
						<tspan direction="ltr" unicode-bidi="embed" x="2.27358 ">m</tspan>
						<tspan direction="ltr" unicode-bidi="embed" x="3.12238 ">a</tspan>
						<tspan direction="ltr" unicode-bidi="embed" x="3.69835 ">t</tspan>
						<tspan direction="ltr" unicode-bidi="embed" x="3.97118 ">a</tspan>
						<tspan direction="ltr" unicode-bidi="embed" x="4.51684 ">n</tspan>
						<tspan direction="ltr" unicode-bidi="embed" x="5.36564 ">L</tspan>
						<tspan direction="ltr" unicode-bidi="embed" x="5.94161 ">a</tspan>
						<tspan direction="ltr" unicode-bidi="embed" x="6.48727 ">w</tspan>
						<tspan direction="ltr" unicode-bidi="embed" x="7.21482 ">e</tspan>
						<tspan direction="ltr" unicode-bidi="embed" x="7.79079 ">y</tspan>
						<tspan direction="ltr" unicode-bidi="embed" x="8.27582 ">a</tspan>
						<tspan direction="ltr" unicode-bidi="embed" x="8.85179 ">n</tspan>
					</text>
				</g>
			</g>
		</g>
	</g>
</svg>
