<?xml version="1.0" encoding="utf-8" standalone="no"?>
<!-- Creator: Esri ArcMap 10.5.0.6491 -->
<!DOCTYPE svg PUBLIC "-//W3C//DTD SVG 1.1//EN"  "http://www.w3.org/Graphics/SVG/1.1/DTD/svg11.dtd">
<svg width="610.49764pt" height="428.25827pt" viewBox="0 0 610.49764 428.25827" enable-background="new 0 0 610.49764 428.25827"
	version="1.1" xmlns="http://www.w3.org/2000/svg" xmlns:xlink="http://www.w3.org/1999/xlink" >
	<g id="Layers">
		<g id="Kec_Jebres">
			<clipPath id="SVG_CP_1">
				<path d="M0,428.25827L0,0L610.48202,0L610.48202,428.25827L0,428.25827z"/>
			</clipPath>
			<path clip-path="url(#SVG_CP_1)" fill="#EFC9F5" fill-rule="evenodd" stroke="#6E6E6E" stroke-width="0.47994" stroke-miterlimit="10" stroke-linecap="round" stroke-linejoin="round" d="
				M567.76748,109.22687L567.76748,111.3874L567.76748,112.34764L567.28754,113.78799L567.28754,115.46841L567.04757,117.14882L
				566.56763,118.34911L566.08769,118.82923L565.12781,119.06929L563.92797,118.82923L562.96809,118.34911L562.00821,118.34911L
				560.80836,119.06929L559.84849,119.78947L559.36855,121.22982L559.12858,121.70994L559.12858,122.91024L559.12858,124.11053L
				559.36855,125.79095L559.60852,126.99124L559.60852,128.67165L560.32843,129.63189L559.60852,130.59213L558.40867,132.27254L
				557.44879,133.47284L557.20882,134.43307L557.44879,136.5936L557.68876,138.03396L557.68876,139.23425L558.40867,139.71437L558.88861,139.95443
				L559.60852,140.19449L560.08846,141.15472L559.60852,141.63484L558.1687,142.11496L557.92873,142.59508L558.1687,143.55532L558.88861,144.75561
				L559.84849,144.99567L560.56839,144.99567L562.00821,144.99567L562.48815,145.71585L564.16793,146.91614L565.36778,147.63632
				L566.56763,148.11644L568.48738,148.59656L569.9272,147.87638L570.64711,147.1562L571.12705,145.95591L571.60698,144.51555L572.32689,142.35502
				L572.80683,140.91467L573.52674,139.71437L574.24665,138.75413L574.96656,138.99419L575.92643,139.95443L576.88631,140.91467
				L578.08616,141.8749L579.04603,142.35502L579.76594,142.11496L581.20576,141.39478L581.20576,138.99419L581.20576,136.83366L
				581.20576,135.15325L581.44573,133.71289L582.88554,133.23278L585.28524,133.23278L587.20499,133.47284L589.84465,134.19301L
				592.72429,135.39331L594.88401,136.11348L596.5638,137.07372L598.00361,138.27402L598.96349,139.71437L600.16334,141.15472L601.36318,143.0752
				L602.08309,144.27549L601.12321,144.75561L600.16334,145.71585L598.48355,148.11644L597.52367,149.55679L596.80377,151.23721
				L596.5638,153.15768L596.08386,155.31821L596.08386,157.7188L595.12398,161.31969L594.64404,165.40069L594.40407,167.56122L593.4442,172.12234
				L592.72429,175.72323L592.00438,178.844L591.28447,181.48465L591.28447,182.925L591.28447,184.60541L591.28447,187.006L591.52444,189.40659
				L591.52444,191.08701L591.52444,193.24754L591.76441,195.16801L591.76441,197.08848L591.28447,199.24902L590.32459,200.68937
				L589.60469,202.8499L589.12475,204.77037L588.40484,205.97067L587.9249,207.65108L587.20499,209.57156L586.24511,211.49203L584.8053,212.21221
				L583.60545,212.69232L581.44573,212.93238L579.04603,212.45226L577.36625,212.21221L575.20652,212.45226L572.56686,212.45226
				L570.88708,212.93238L569.68723,213.65256L568.48738,214.6128L567.04757,216.29321L565.36778,218.21368L564.16793,219.89409L
				562.96809,221.81457L562.48815,222.7748L562.00821,223.73504L561.52827,225.41545L561.2883,228.0561L561.04833,230.45669L561.04833,232.61722
				L561.2883,234.5377L561.2883,236.21811L561.2883,237.65847L561.2883,240.29911L561.2883,243.17982L561.2883,245.34035L561.04833,247.50089
				L560.32843,250.14154L559.60852,252.06201L559.12858,253.74242L558.40867,255.42284L558.1687,256.14301L557.44879,257.10325L
				556.96885,257.82343L556.00898,259.26378L555.76901,259.7439L555.0491,261.18425L554.32919,262.62461L553.84925,264.30502L553.12934,265.74537
				L552.88938,267.18573L551.9295,269.1062L550.72965,271.50679L550.72965,272.70709L550.00974,274.14744L549.76977,274.62756L549.28984,275.10768
				L548.56993,276.06791L547.13011,277.02815L546.4102,277.74833L544.73042,278.94862L542.57069,280.14892L540.89091,280.38898L
				539.45109,281.10915L537.53134,281.58927L536.09152,281.82933L533.9318,282.06939L532.25201,282.06939L530.8122,282.30945L529.13241,282.30945
				L527.69259,282.06939L525.2929,280.86909L524.33302,279.90886L522.89321,279.18868L521.45339,278.94862L520.49351,278.4685L519.53364,278.22845
				L518.57376,278.22845L517.37391,278.4685L516.41403,279.42874L515.69413,280.86909L514.97422,282.78957L514.01434,284.46998L
				513.77437,285.19016L513.77437,286.39045L513.77437,287.11063L513.77437,288.31093L514.49428,289.75128L515.9341,290.95158L517.13394,292.63199
				L517.61388,294.07234L517.85385,296.23287L518.09382,298.15335L518.09382,300.31388L518.33379,301.99429L518.09382,303.43465
				L517.61388,304.15482L516.89397,305.11506L515.69413,305.83524L512.81449,306.31535L510.65477,306.0753L509.45492,305.59518L
				508.73502,304.63494L508.25508,304.15482L507.05523,302.71447L506.57529,301.99429L505.13548,301.27411L503.45569,300.794L502.25584,300.07382
				L501.29597,300.07382L499.61618,300.07382L498.17636,300.07382L496.25661,299.5937L494.57682,299.5937L493.85692,299.5937L491.69719,298.87352
				L490.97728,298.87352L490.01741,298.39341L488.57759,297.91329L486.41787,296.95305L485.21802,296.71299L482.81833,295.75276
				L481.37851,295.03258L478.73885,294.07234L477.539,293.59222L476.33915,293.59222L475.61925,293.83228L474.4194,294.07234L473.45952,294.79252
				L472.25968,295.27264L471.53977,296.23287L470.81986,297.19311L470.33992,298.39341L469.38004,300.794L468.9001,302.71447L468.9001,303.91476
				L468.42017,305.11506L468.1802,306.31535L468.1802,307.75571L467.94023,309.43612L467.94023,310.63642L467.94023,312.07677L467.70026,313.27707
				L467.70026,314.2373L467.46029,315.19754L466.50041,316.15778L465.30056,317.35807L464.10072,318.07825L463.14084,318.79843L
				461.94099,319.27854L460.50118,319.5186L459.06136,319.5186L457.86151,320.23878L456.4217,320.47884L455.46182,320.7189L454.50194,320.95896
				L454.022,320.95896L453.78204,320.47884L453.06213,318.79843L453.06213,317.83819L452.58219,316.39784L451.86228,315.19754L451.62231,313.99724
				L450.9024,313.03701L449.70256,312.07677L448.98265,312.07677L446.82292,311.35659L445.14314,311.35659L443.46335,311.59665L
				441.78357,311.59665L439.62384,311.35659L437.46412,311.35659L434.82446,310.87648L432.9047,310.39636L430.98495,309.91624L429.06519,308.71595
				L426.18556,307.75571L424.26581,307.75571L422.58602,307.51565L420.90623,306.79547L419.22645,306.31535L417.54666,305.83524
				L415.38694,305.35512L413.70715,304.875L412.26734,304.39488L410.58755,303.91476L409.86764,303.19459L408.90777,302.47441L407.94789,301.51417
				L406.98801,300.55394L406.74804,299.83376L406.98801,298.87352L406.98801,297.43317L407.22798,295.75276L407.22798,294.55246
				L407.46795,292.63199L407.46795,291.67175L407.46795,289.99134L407.70792,287.83081L407.70792,285.91034L407.22798,284.71004
				L406.98801,283.50974L405.78817,282.54951L405.06826,281.58927L403.1485,281.58927L400.98878,281.58927L399.06902,282.30945L
				395.70945,283.02963L393.54973,283.7498L391.62997,283.98986L389.71022,284.22992L387.31053,283.7498L384.43089,283.02963L381.31129,282.30945
				L378.9116,281.82933L376.99184,281.34921L376.03197,280.86909L375.31206,279.6688L375.31206,277.74833L375.31206,275.82785L375.31206,271.98691
				L375.31206,268.86614L374.83212,267.42579L373.15233,265.98543L372.43243,264.54508L372.43243,262.62461L372.6724,259.7439L372.43243,257.58337
				L372.91237,256.62313L373.87224,255.18278L374.59215,253.50236L375.31206,250.62165L375.792,247.981L376.27194,244.86024L376.51191,241.73947
				L376.75188,237.65847L376.99184,234.77776L377.47178,230.69675L378.67163,224.69528L379.39154,218.93386L379.87148,215.81309
				L380.35142,214.13268L381.07132,212.93238L386.59062,213.65256L387.07056,213.17244L388.2704,205.01043L388.75034,203.57008L
				389.47025,202.12972L390.6701,202.12972L392.34988,202.12972L393.7897,202.60984L395.22951,202.12972L397.86918,202.12972L400.0289,202.12972
				L401.70869,202.12972L402.90853,201.88967L404.82829,200.20925L406.02814,198.52884L406.50807,196.60837L407.70792,193.4876L
				407.70792,191.56713L408.18786,190.12677L408.6678,188.92648L409.38771,188.2063L410.82752,188.2063L412.98725,188.44636L415.86688,188.44636
				L416.58679,187.96624L421.62614,186.76595L424.02584,186.28583L425.22568,183.64518L423.06596,183.40512L419.46642,183.16506
				L416.58679,183.40512L413.94712,182.925L412.02737,182.925L401.94866,181.96476L401.46872,181.00453L404.58832,163.72028L402.90853,163.0001
				L397.14927,162.03986L395.46948,161.55974L395.22951,160.59951L395.94942,156.99862L396.66933,152.91762L397.62921,149.07667
				L398.10915,144.51555L399.06902,140.19449L400.26887,133.95295L400.74881,132.27254L401.70869,132.75266L403.1485,132.99272L
				404.82829,134.19301L406.74804,134.91319L407.70792,135.15325L408.18786,134.91319L409.38771,134.67313L410.82752,132.27254L
				411.30746,129.63189L412.26734,127.47136L412.26734,125.79095L412.26734,124.59065L412.50731,122.67018L412.74728,120.74971L
				413.46719,118.58917L412.74728,117.869L411.7874,117.38888L409.86764,116.42864L407.94789,114.74823L406.02814,113.30787L403.38847,110.42717
				L401.70869,108.74675L399.54896,106.34616L398.58909,105.14587L397.38924,103.94557L394.98955,102.0251L393.7897,101.06486L393.06979,99.14439
				L392.82982,96.98386L392.82982,94.58327L393.54973,91.70256L394.02967,88.82185L394.50961,85.46102L394.50961,84.50079L394.50961,82.58032
				L394.50961,81.13996L394.26964,79.69961L393.7897,78.49931L393.54973,78.25925L391.86994,77.77913L390.19016,77.53908L390.43013,77.05896
				L391.15004,75.85866L391.62997,73.93819L392.58985,70.81742L393.7897,67.45659L393.7897,66.01624L394.26964,65.056L394.98955,64.81595
				L395.94942,64.81595L396.42936,64.57589L396.9093,63.61565L397.86918,62.1753L400.50884,58.57441L401.22875,57.37411L402.66856,56.65394
				L402.90853,56.65394L404.58832,56.41388L406.50807,56.17382L407.94789,55.93376L409.14774,54.49341L410.10761,53.53317L412.02737,51.85276
				L413.46719,48.97205L414.18709,49.93228L415.38694,50.4124L416.82676,51.37264L417.78663,52.09282L419.46642,53.29311L420.4263,54.25335
				L422.34605,55.45364L422.82599,56.894L423.5459,58.09429L424.02584,59.29459L424.02584,60.73494L424.74574,61.21506L426.18556,61.45512
				L430.26504,61.93524L431.94482,61.93524L433.86458,61.93524L436.50424,61.93524L438.90394,61.93524L440.34375,62.1753L441.30363,63.13553
				L443.22338,63.85571L445.38311,64.33583L448.26274,64.57589L449.46259,64.33583L451.38234,64.09577L454.022,63.85571L456.90164,63.61565
				L459.06136,63.37559L460.98112,63.61565L461.70102,62.89547L461.70102,61.69518L461.94099,60.49488L462.18096,59.77471L464.58066,59.53465
				L467.94023,59.05453L469.62001,59.29459L470.81986,60.25482L471.2998,60.975L472.25968,61.21506L472.97958,61.21506L475.13931,60.25482
				L477.29903,59.53465L479.69872,59.29459L481.61848,59.29459L483.29827,60.49488L485.21802,61.45512L486.89781,62.65541L487.61771,63.37559
				L488.33762,64.09577L489.2975,63.37559L490.01741,62.65541L491.45722,61.69518L492.4171,60.975L493.37698,60.975L496.73655,64.09577
				L499.61618,66.01624L502.25584,67.21654L503.93563,67.69665L505.85538,68.65689L507.53517,68.65689L510.65477,70.09724L512.81449,71.29754
				L513.5344,71.77766L514.01434,72.01772L515.69413,71.29754L517.61388,70.3373L521.45339,67.21654L526.01281,64.57589L527.21266,63.61565
				L528.17253,62.41535L528.89244,61.45512L530.8122,61.45512L534.41174,61.93524L537.0514,62.65541L539.45109,65.056L541.61082,67.45659
				L543.05063,69.13701L543.05063,71.29754L540.41097,72.25778L537.29137,73.45807L535.13164,74.41831L532.97192,75.6186L531.29213,76.57884
				L532.25201,77.77913L533.21189,78.97943L533.45186,80.8999L533.45186,82.34026L530.57223,83.30049L529.37238,84.02067L530.33226,85.46102
				L530.33226,87.62156L530.57223,90.26221L530.57223,92.42274L529.85232,94.10315L530.8122,96.02362L531.29213,97.94409L530.57223,99.38445
				L530.33226,101.06486L530.33226,102.74528L530.8122,103.70551L532.01204,104.18563L532.01204,105.38593L532.25201,106.82628L
				532.25201,108.02658L534.65171,107.54646L536.33149,107.06634L537.29137,105.38593L538.73118,104.66575L540.65094,105.62598L
				542.33072,106.58622L545.6903,106.58622L548.56993,106.34616L551.20959,106.58622L553.84925,107.3064L557.92873,107.54646L561.52827,107.78652
				L564.88784,108.26663L567.76748,109.22687z"/>
		</g>
		<g id="Labels">
			<g id="Kec_Jebres_-_Default">
				<g font-family="'Arial'" font-size="1" kerning="0" font-weight="400" fill="#000000" clip-path="url(#SVG_CP_1)" >
					<text text-anchor="start" transform="matrix(7.91899 0 0 7.92195 487.25776 187.48776)" >
						<tspan direction="ltr" unicode-bidi="embed" x="0 ">K</tspan>
						<tspan direction="ltr" unicode-bidi="embed" x="0.66692 ">e</tspan>
						<tspan direction="ltr" unicode-bidi="embed" x="1.21257 ">c</tspan>
						<tspan direction="ltr" unicode-bidi="embed" x="1.72792 ">.</tspan>
						<tspan direction="ltr" unicode-bidi="embed" x="2.27358 ">J</tspan>
						<tspan direction="ltr" unicode-bidi="embed" x="2.78892 ">e</tspan>
						<tspan direction="ltr" unicode-bidi="embed" x="3.33458 ">b</tspan>
						<tspan direction="ltr" unicode-bidi="embed" x="3.91055 ">r</tspan>
						<tspan direction="ltr" unicode-bidi="embed" x="4.24401 ">e</tspan>
						<tspan direction="ltr" unicode-bidi="embed" x="4.81998 ">s</tspan>
					</text>
				</g>
			</g>
		</g>
	</g>
</svg>
