<?xml version="1.0" encoding="utf-8" standalone="no"?>
<!-- Creator: Esri ArcMap 10.5.0.6491 -->
<!DOCTYPE svg PUBLIC "-//W3C//DTD SVG 1.1//EN"  "http://www.w3.org/Graphics/SVG/1.1/DTD/svg11.dtd">
<svg width="610.49764pt" height="428.25827pt" viewBox="0 0 610.49764 428.25827" enable-background="new 0 0 610.49764 428.25827"
	version="1.1" xmlns="http://www.w3.org/2000/svg" xmlns:xlink="http://www.w3.org/1999/xlink" >
	<g id="Layers">
		<g id="Kec_banjarsari">
			<clipPath id="SVG_CP_1">
				<path d="M0,428.25827L0,0L610.48202,0L610.48202,428.25827L0,428.25827z"/>
			</clipPath>
			<path clip-path="url(#SVG_CP_1)" fill="#FFBEBE" fill-rule="evenodd" stroke="none" d="M406.50807,56.17382L402.90853,56.65394
				L400.50884,58.57441L397.86918,62.1753L396.9093,63.61565L395.94942,64.81595L394.26964,65.056L393.7897,67.45659L392.58985,70.81742
				L391.62997,73.93819L390.43013,77.05896L390.19016,77.53908L393.54973,78.25925L394.26964,79.69961L394.50961,82.58032L394.02967,88.82185
				L393.7897,90.02215L393.54973,91.70256L393.30976,92.6628L393.06979,93.86309L392.82982,94.58327L392.82982,95.5435L392.82982,96.50374
				L392.82982,96.98386L393.06979,99.14439L393.7897,101.06486L397.38924,103.94557L398.58909,105.38593L401.70869,108.74675L403.38847,110.42717
				L406.02814,113.30787L407.94789,114.74823L409.86764,116.42864L411.7874,117.38888L412.74728,117.869L413.46719,118.58917L412.74728,120.74971
				L412.50731,122.67018L412.26734,124.59065L412.26734,127.47136L411.30746,129.63189L410.82752,132.27254L409.38771,134.67313
				L408.18786,134.91319L407.70792,135.15325L404.82829,134.19301L403.1485,132.99272L401.70869,132.75266L400.74881,132.27254L
				400.26887,133.95295L399.06902,140.19449L398.10915,144.51555L397.62921,149.07667L396.66933,152.91762L395.94942,156.99862L
				395.22951,160.59951L395.46948,161.55974L397.14927,162.03986L402.90853,163.0001L404.58832,163.72028L402.90853,173.5627L401.46872,181.00453
				L401.94866,181.96476L412.02737,182.925L413.94712,182.925L416.58679,183.40512L419.46642,183.16506L423.06596,183.40512L425.22568,183.64518
				L424.02584,186.28583L421.62614,186.76595L416.58679,187.96624L415.86688,188.44636L409.38771,188.2063L408.6678,188.92648L407.70792,191.56713
				L407.70792,193.4876L406.02814,198.52884L404.82829,200.20925L402.90853,201.88967L401.70869,202.12972L397.86918,202.12972L
				395.22951,202.12972L393.7897,202.60984L392.34988,202.12972L389.47025,202.12972L388.75034,203.57008L387.07056,213.17244L386.59062,213.65256
				L381.07132,212.93238L380.35142,214.13268L379.87148,215.81309L378.67163,224.69528L377.47178,230.69675L376.99184,234.77776
				L376.75188,237.65847L376.51191,241.73947L376.27194,244.86024L375.31206,250.62165L374.59215,253.50236L373.87224,255.18278
				L372.91237,256.62313L372.43243,257.58337L371.23258,256.14301L364.75341,253.02224L360.67393,251.34183L360.19399,249.90148
				L358.99414,249.1813L356.59445,248.70118L352.99491,248.46112L349.63534,248.94124L347.71558,249.66142L347.47561,251.10177L
				347.47561,253.98248L347.23565,255.90295L346.51574,257.58337L346.0358,260.22402L344.83595,263.8249L343.15617,267.18573L342.19629,269.82638
				L341.95632,271.26673L342.9162,271.74685L345.07592,271.98691L346.75571,272.70709L348.19552,273.66732L348.43549,274.86762L
				344.83595,287.35069L337.3969,284.46998L290.60288,269.1062L290.12294,268.86614L289.643,267.66585L292.52263,259.02372L289.16306,257.82343
				L288.20319,257.58337L286.04346,257.58337L281.48404,257.58337L281.24407,256.86319L280.76414,255.66289L279.56429,254.70266
				L278.60441,254.4626L277.40457,254.22254L278.60441,248.94124L257.72708,244.62018L257.72708,241.97953L257.24714,241.73947L
				252.20778,240.77923L246.44852,238.13858L246.44852,235.25787L242.60901,235.25787L239.00947,233.3374L233.73014,232.37717L238.7695,214.37274
				L161.49937,229.97658L148.781,225.89557L153.82035,223.49498L159.09968,225.17539L162.45925,225.89557L166.05879,224.93534L168.45848,223.01486
				L170.13827,217.97362L176.1375,218.45374L202.05419,172.12234L204.69385,170.20187L202.05419,169.24163L200.61437,169.24163L
				198.93459,169.72175L197.01483,171.64222L195.57502,173.32264L193.89523,174.28287L192.21545,174.52293L190.53566,173.80276L
				189.09585,172.3624L188.13597,172.12234L186.45618,172.84252L185.25634,172.84252L184.53643,171.88228L184.53643,170.20187L185.01637,168.76152
				L184.7764,167.56122L183.57655,166.60098L181.6568,165.40069L178.77716,163.48022L175.89753,161.07963L173.0179,157.95886L171.57808,155.31821
				L170.85818,152.19744L171.57808,148.83661L192.69539,76.57884L195.33505,70.09724L197.73474,61.93524L197.97471,61.45512L200.13444,61.45512
				L202.05419,60.73494L203.49401,59.77471L204.69385,58.33435L205.65373,56.894L206.37364,54.97352L207.57349,53.05305L208.53336,51.85276
				L210.45312,51.6127L212.61284,51.85276L214.05266,52.09282L215.2525,52.57293L216.69232,53.29311L217.6522,54.01329L219.09201,54.97352
				L220.29186,55.6937L220.7718,56.17382L221.97165,56.65394L222.45159,56.41388L223.17149,55.93376L224.85128,55.21358L226.53106,54.49341
				L228.21085,54.25335L230.37057,54.49341L231.81039,55.45364L233.73014,57.13406L234.69002,58.33435L235.40993,60.01476L235.88987,61.69518
				L235.88987,63.37559L235.88987,65.056L236.84975,66.49636L237.56965,67.45659L238.52953,67.45659L240.44929,67.45659L241.8891,66.97648
				L242.36904,65.53612L242.60901,63.37559L242.36904,60.975L242.36904,58.81447L242.36904,57.37411L243.32892,55.6937L244.76873,53.53317
				L245.24867,51.85276L246.20855,49.93228L247.64837,47.53169L249.08818,45.37116L250.76797,43.69075L252.20778,42.49045L253.88757,41.53022
				L255.32739,40.56998L255.80732,39.8498L255.32739,38.88957L254.60748,38.16939L253.6476,37.20915L253.40763,36.48898L253.40763,35.28868
				L254.12754,34.5685L255.08742,33.84833L257.48711,33.60827L258.44699,33.60827L257.72708,31.92785L256.52723,30.72756L255.08742,29.52726
				L254.12754,28.08691L253.6476,27.12667L253.6476,25.2062L253.88757,23.52579L254.84745,22.32549L256.28726,20.88514L258.44699,19.68484
				L262.04653,16.56408L262.52647,11.28278L262.76644,9.3623L263.48634,8.88219L274.52493,3.60089L275.96475,3.60089L278.36444,4.80118
				L278.84438,4.80118L279.56429,4.56112L281.24407,3.36083L281.96398,2.40059L282.92386,1.2003L284.36368,0.96024L285.80349,2.40059
				L294.68236,33.12815L297.56199,33.60827L299.48175,34.32845L302.12141,34.08839L304.76107,33.36821L306.68083,32.64803L308.12064,32.40797
				L311.48021,34.32845L318.91926,34.08839L336.43702,38.40945L338.11681,39.36969L339.55663,36.96909L354.91466,44.65098L356.11451,36.24892
				L394.02967,48.49193L394.02967,52.81299L399.54896,52.33287L403.62844,53.29311L403.86841,55.6937L403.62844,55.6937L403.86841,55.6937
				L406.50807,56.17382z"/>
			<path clip-path="url(#SVG_CP_1)" fill="none" stroke="#000000" stroke-width="0.47994" stroke-miterlimit="10" stroke-linecap="round" stroke-linejoin="round" d="
				M406.50807,56.17382L402.90853,56.65394L400.50884,58.57441L397.86918,62.1753L396.9093,63.61565L395.94942,64.81595L394.26964,65.056
				L393.7897,67.45659L392.58985,70.81742L391.62997,73.93819L390.43013,77.05896L390.19016,77.53908L393.54973,78.25925L394.26964,79.69961
				L394.50961,82.58032L394.02967,88.82185L393.7897,90.02215L393.54973,91.70256L393.30976,92.6628L393.06979,93.86309L392.82982,94.58327
				L392.82982,95.5435L392.82982,96.50374L392.82982,96.98386L393.06979,99.14439L393.7897,101.06486L397.38924,103.94557L398.58909,105.38593
				L401.70869,108.74675L403.38847,110.42717L406.02814,113.30787L407.94789,114.74823L409.86764,116.42864L411.7874,117.38888L
				412.74728,117.869L413.46719,118.58917L412.74728,120.74971L412.50731,122.67018L412.26734,124.59065L412.26734,127.47136L411.30746,129.63189
				L410.82752,132.27254L409.38771,134.67313L408.18786,134.91319L407.70792,135.15325L404.82829,134.19301L403.1485,132.99272L
				401.70869,132.75266L400.74881,132.27254L400.26887,133.95295L399.06902,140.19449L398.10915,144.51555L397.62921,149.07667L
				396.66933,152.91762L395.94942,156.99862L395.22951,160.59951L395.46948,161.55974L397.14927,162.03986L402.90853,163.0001L404.58832,163.72028
				L402.90853,173.5627L401.46872,181.00453L401.94866,181.96476L412.02737,182.925L413.94712,182.925L416.58679,183.40512L419.46642,183.16506
				L423.06596,183.40512L425.22568,183.64518L424.02584,186.28583L421.62614,186.76595L416.58679,187.96624L415.86688,188.44636
				L409.38771,188.2063L408.6678,188.92648L407.70792,191.56713L407.70792,193.4876L406.02814,198.52884L404.82829,200.20925L402.90853,201.88967
				L401.70869,202.12972L397.86918,202.12972L395.22951,202.12972L393.7897,202.60984L392.34988,202.12972L389.47025,202.12972L
				388.75034,203.57008L387.07056,213.17244L386.59062,213.65256L381.07132,212.93238L380.35142,214.13268L379.87148,215.81309L
				378.67163,224.69528L377.47178,230.69675L376.99184,234.77776L376.75188,237.65847L376.51191,241.73947L376.27194,244.86024L
				375.31206,250.62165L374.59215,253.50236L373.87224,255.18278L372.91237,256.62313L372.43243,257.58337L371.23258,256.14301L
				364.75341,253.02224L360.67393,251.34183L360.19399,249.90148L358.99414,249.1813L356.59445,248.70118L352.99491,248.46112L349.63534,248.94124
				L347.71558,249.66142L347.47561,251.10177L347.47561,253.98248L347.23565,255.90295L346.51574,257.58337L346.0358,260.22402L
				344.83595,263.8249L343.15617,267.18573L342.19629,269.82638L341.95632,271.26673L342.9162,271.74685L345.07592,271.98691L346.75571,272.70709
				L348.19552,273.66732L348.43549,274.86762L344.83595,287.35069L337.3969,284.46998L290.60288,269.1062L290.12294,268.86614L289.643,267.66585
				L292.52263,259.02372L289.16306,257.82343L288.20319,257.58337L286.04346,257.58337L281.48404,257.58337L281.24407,256.86319
				L280.76414,255.66289L279.56429,254.70266L278.60441,254.4626L277.40457,254.22254L278.60441,248.94124L257.72708,244.62018L
				257.72708,241.97953L257.24714,241.73947L252.20778,240.77923L246.44852,238.13858L246.44852,235.25787L242.60901,235.25787L
				239.00947,233.3374L233.73014,232.37717L238.7695,214.37274L161.49937,229.97658L148.781,225.89557L153.82035,223.49498L159.09968,225.17539
				L162.45925,225.89557L166.05879,224.93534L168.45848,223.01486L170.13827,217.97362L176.1375,218.45374L202.05419,172.12234L
				204.69385,170.20187L202.05419,169.24163L200.61437,169.24163L198.93459,169.72175L197.01483,171.64222L195.57502,173.32264L
				193.89523,174.28287L192.21545,174.52293L190.53566,173.80276L189.09585,172.3624L188.13597,172.12234L186.45618,172.84252L185.25634,172.84252
				L184.53643,171.88228L184.53643,170.20187L185.01637,168.76152L184.7764,167.56122L183.57655,166.60098L181.6568,165.40069L178.77716,163.48022
				L175.89753,161.07963L173.0179,157.95886L171.57808,155.31821L170.85818,152.19744L171.57808,148.83661L192.69539,76.57884L195.33505,70.09724
				L197.73474,61.93524L197.97471,61.45512L200.13444,61.45512L202.05419,60.73494L203.49401,59.77471L204.69385,58.33435L205.65373,56.894
				L206.37364,54.97352L207.57349,53.05305L208.53336,51.85276L210.45312,51.6127L212.61284,51.85276L214.05266,52.09282L215.2525,52.57293
				L216.69232,53.29311L217.6522,54.01329L219.09201,54.97352L220.29186,55.6937L220.7718,56.17382L221.97165,56.65394L222.45159,56.41388
				L223.17149,55.93376L224.85128,55.21358L226.53106,54.49341L228.21085,54.25335L230.37057,54.49341L231.81039,55.45364L233.73014,57.13406
				L234.69002,58.33435L235.40993,60.01476L235.88987,61.69518L235.88987,63.37559L235.88987,65.056L236.84975,66.49636L237.56965,67.45659
				L238.52953,67.45659L240.44929,67.45659L241.8891,66.97648L242.36904,65.53612L242.60901,63.37559L242.36904,60.975L242.36904,58.81447
				L242.36904,57.37411L243.32892,55.6937L244.76873,53.53317L245.24867,51.85276L246.20855,49.93228L247.64837,47.53169L249.08818,45.37116
				L250.76797,43.69075L252.20778,42.49045L253.88757,41.53022L255.32739,40.56998L255.80732,39.8498L255.32739,38.88957L254.60748,38.16939
				L253.6476,37.20915L253.40763,36.48898L253.40763,35.28868L254.12754,34.5685L255.08742,33.84833L257.48711,33.60827L258.44699,33.60827
				L257.72708,31.92785L256.52723,30.72756L255.08742,29.52726L254.12754,28.08691L253.6476,27.12667L253.6476,25.2062L253.88757,23.52579
				L254.84745,22.32549L256.28726,20.88514L258.44699,19.68484L262.04653,16.56408L262.52647,11.28278L262.76644,9.3623L263.48634,8.88219
				L274.52493,3.60089L275.96475,3.60089L278.36444,4.80118L278.84438,4.80118L279.56429,4.56112L281.24407,3.36083L281.96398,2.40059
				L282.92386,1.2003L284.36368,0.96024L285.80349,2.40059L294.68236,33.12815L297.56199,33.60827L299.48175,34.32845L302.12141,34.08839
				L304.76107,33.36821L306.68083,32.64803L308.12064,32.40797L311.48021,34.32845L318.91926,34.08839L336.43702,38.40945L338.11681,39.36969
				L339.55663,36.96909L354.91466,44.65098L356.11451,36.24892L394.02967,48.49193L394.02967,52.81299L399.54896,52.33287L403.62844,53.29311
				L403.86841,55.6937L403.62844,55.6937L403.86841,55.6937L406.50807,56.17382"/>
		</g>
		<g id="Labels">
			<g id="Kec_banjarsari_-_Default">
				<g font-family="'Arial'" font-size="1" kerning="0" font-weight="400" fill="#000000" clip-path="url(#SVG_CP_1)" >
					<text text-anchor="start" transform="matrix(7.91899 0 0 7.92195 246.80847 146.91778)" >
						<tspan direction="ltr" unicode-bidi="embed" x="0 ">K</tspan>
						<tspan direction="ltr" unicode-bidi="embed" x="0.66692 ">e</tspan>
						<tspan direction="ltr" unicode-bidi="embed" x="1.21257 ">c</tspan>
						<tspan direction="ltr" unicode-bidi="embed" x="1.72792 ">a</tspan>
						<tspan direction="ltr" unicode-bidi="embed" x="2.27358 ">m</tspan>
						<tspan direction="ltr" unicode-bidi="embed" x="3.12238 ">a</tspan>
						<tspan direction="ltr" unicode-bidi="embed" x="3.69835 ">t</tspan>
						<tspan direction="ltr" unicode-bidi="embed" x="3.97118 ">a</tspan>
						<tspan direction="ltr" unicode-bidi="embed" x="4.51684 ">n</tspan>
						<tspan direction="ltr" unicode-bidi="embed" x="5.36564 ">B</tspan>
						<tspan direction="ltr" unicode-bidi="embed" x="6.03256 ">a</tspan>
						<tspan direction="ltr" unicode-bidi="embed" x="6.60853 ">n</tspan>
						<tspan direction="ltr" unicode-bidi="embed" x="7.15419 ">j</tspan>
						<tspan direction="ltr" unicode-bidi="embed" x="7.3967 ">a</tspan>
						<tspan direction="ltr" unicode-bidi="embed" x="7.94236 ">r</tspan>
						<tspan direction="ltr" unicode-bidi="embed" x="8.27582 ">s</tspan>
						<tspan direction="ltr" unicode-bidi="embed" x="8.79116 ">a</tspan>
						<tspan direction="ltr" unicode-bidi="embed" x="9.33682 ">r</tspan>
						<tspan direction="ltr" unicode-bidi="embed" x="9.67028 ">i</tspan>
					</text>
				</g>
			</g>
		</g>
	</g>
</svg>
