<?xml version="1.0" encoding="utf-8" standalone="no"?>
<!-- Creator: Esri ArcMap 10.5.0.6491 -->
<!DOCTYPE svg PUBLIC "-//W3C//DTD SVG 1.1//EN"  "http://www.w3.org/Graphics/SVG/1.1/DTD/svg11.dtd">
<svg width="610.49764pt" height="428.25827pt" viewBox="0 0 610.49764 428.25827" enable-background="new 0 0 610.49764 428.25827"
	version="1.1" xmlns="http://www.w3.org/2000/svg" xmlns:xlink="http://www.w3.org/1999/xlink" >
	<g id="Layers">
		<g id="Kec_Pasar_Kliwon">
			<clipPath id="SVG_CP_1">
				<path d="M0,428.25827L0,0L610.48202,0L610.48202,428.25827L0,428.25827z"/>
			</clipPath>
			<path clip-path="url(#SVG_CP_1)" fill="#CBF7E5" fill-rule="evenodd" stroke="#6E6E6E" stroke-width="0.47994" stroke-miterlimit="10" stroke-linecap="round" stroke-linejoin="round" d="
				M454.022,320.95896L453.3021,321.19902L452.82216,321.43908L451.38234,322.63937L450.1825,324.55984L449.22262,327.44055L449.22262,330.56132
				L448.98265,334.16221L448.98265,337.28297L448.98265,340.16368L448.26274,341.84409L446.82292,343.28445L444.90317,344.7248L
				443.22338,346.16516L439.86381,348.56575L438.424,351.2064L438.18403,355.04734L438.424,358.64823L438.90394,361.28888L439.14391,364.64971
				L438.66397,367.0503L436.50424,378.33307L434.10455,391.29626L433.62461,393.45679L429.7851,398.25797L429.06519,398.25797L426.90547,398.25797
				L424.98571,398.25797L421.62614,398.25797L418.98648,398.25797L416.34682,398.49803L413.70715,399.21821L411.54743,400.65856
				L408.18786,404.01939L404.10838,408.10039L400.98878,412.42146L397.14927,416.98258L390.43013,423.94429L389.23028,424.66447
				L387.79046,424.90453L386.59062,425.14459L385.63074,425.14459L384.19092,424.66447L382.75111,423.70423L380.83135,422.744L378.9116,421.5437
				L376.99184,420.10335L373.63227,417.70276L371.47255,416.02234L367.39307,413.62175L362.83365,412.90158L358.75417,412.90158
				L357.31436,412.66152L355.87454,412.1814L352.03503,410.50098L343.63611,408.10039L338.11681,407.62028L335.95709,407.14016L
				331.87761,406.17992L328.51804,404.97963L333.07745,391.29626L346.0358,358.64823L314.59981,349.76604L327.07822,311.59665L336.91696,284.46998
				L344.83595,287.35069L348.43549,274.86762L348.19552,273.66732L346.75571,272.70709L345.07592,271.98691L342.9162,271.74685L
				341.95632,271.26673L342.19629,269.82638L343.15617,267.18573L344.83595,263.8249L346.0358,260.22402L346.51574,257.58337L347.23565,255.90295
				L347.47561,253.98248L347.47561,251.10177L347.71558,249.66142L349.63534,248.94124L352.99491,248.46112L356.59445,248.70118
				L358.99414,249.1813L360.19399,249.90148L360.67393,251.34183L364.75341,253.02224L371.23258,256.14301L372.43243,257.58337L
				372.6724,259.7439L372.43243,262.62461L372.43243,264.54508L373.15233,265.98543L374.83212,267.42579L375.31206,268.86614L375.31206,277.74833
				L375.31206,279.6688L376.03197,280.86909L378.9116,281.82933L381.31129,282.30945L389.71022,284.22992L391.62997,283.98986L395.70945,283.02963
				L399.06902,282.30945L400.98878,281.58927L403.1485,281.58927L405.06826,281.58927L405.78817,282.54951L406.98801,283.50974L
				407.22798,284.71004L407.70792,285.91034L407.70792,287.83081L407.46795,289.99134L407.46795,291.67175L407.46795,292.63199L
				406.98801,297.43317L406.98801,298.87352L406.74804,299.83376L406.98801,300.55394L407.94789,301.51417L408.90777,302.47441L
				409.86764,303.19459L410.58755,303.91476L412.26734,304.39488L413.70715,304.875L415.38694,305.35512L417.54666,305.83524L419.22645,306.31535
				L420.90623,306.79547L422.58602,307.51565L424.26581,307.75571L426.18556,307.75571L429.06519,308.71595L430.98495,309.91624
				L432.9047,310.39636L434.82446,310.87648L437.46412,311.35659L439.62384,311.35659L441.78357,311.59665L446.82292,311.35659L
				449.70256,312.07677L450.9024,313.03701L451.62231,313.99724L451.86228,315.19754L453.06213,317.83819L453.06213,318.79843L453.78204,320.47884
				L454.022,320.95896z"/>
		</g>
		<g id="Labels">
			<g id="Kec_Pasar_Kliwon_-_Default">
				<g font-family="'Arial'" font-size="1" kerning="0" font-weight="400" fill="#000000" clip-path="url(#SVG_CP_1)" >
					<text text-anchor="start" transform="matrix(7.91899 0 0 7.92195 335.35716 345.92674)" >
						<tspan direction="ltr" unicode-bidi="embed" x="0 ">K</tspan>
						<tspan direction="ltr" unicode-bidi="embed" x="0.66692 ">e</tspan>
						<tspan direction="ltr" unicode-bidi="embed" x="1.21257 ">c</tspan>
						<tspan direction="ltr" unicode-bidi="embed" x="1.72792 ">a</tspan>
						<tspan direction="ltr" unicode-bidi="embed" x="2.27358 ">m</tspan>
						<tspan direction="ltr" unicode-bidi="embed" x="3.12238 ">a</tspan>
						<tspan direction="ltr" unicode-bidi="embed" x="3.69835 ">t</tspan>
						<tspan direction="ltr" unicode-bidi="embed" x="3.97118 ">a</tspan>
						<tspan direction="ltr" unicode-bidi="embed" x="4.51684 ">n</tspan>
						<tspan direction="ltr" unicode-bidi="embed" x="5.36564 ">P</tspan>
						<tspan direction="ltr" unicode-bidi="embed" x="6.03256 ">a</tspan>
						<tspan direction="ltr" unicode-bidi="embed" x="6.60853 ">s</tspan>
						<tspan direction="ltr" unicode-bidi="embed" x="7.09356 ">a</tspan>
						<tspan direction="ltr" unicode-bidi="embed" x="7.66953 ">r</tspan>
						<tspan direction="ltr" unicode-bidi="embed" x="8.27582 ">K</tspan>
						<tspan direction="ltr" unicode-bidi="embed" x="8.94274 ">l</tspan>
						<tspan direction="ltr" unicode-bidi="embed" x="9.18525 ">i</tspan>
						<tspan direction="ltr" unicode-bidi="embed" x="9.39745 ">w</tspan>
						<tspan direction="ltr" unicode-bidi="embed" x="10.125 ">o</tspan>
						<tspan direction="ltr" unicode-bidi="embed" x="10.70097 ">n</tspan>
					</text>
				</g>
			</g>
		</g>
	</g>
</svg>
