<?xml version="1.0" encoding="utf-8" standalone="no"?>
<!-- Creator: Esri ArcMap 10.5.0.6491 -->
<!DOCTYPE svg PUBLIC "-//W3C//DTD SVG 1.1//EN"  "http://www.w3.org/Graphics/SVG/1.1/DTD/svg11.dtd">
<svg width="610.49764pt" height="428.25827pt" viewBox="0 0 610.49764 428.25827" enable-background="new 0 0 610.49764 428.25827"
	version="1.1" xmlns="http://www.w3.org/2000/svg" xmlns:xlink="http://www.w3.org/1999/xlink" >
	<g id="Layers">
		<g id="Kec_Serengan">
			<clipPath id="SVG_CP_1">
				<path d="M0,428.25827L0,0L610.48202,0L610.48202,428.25827L0,428.25827z"/>
			</clipPath>
			<path clip-path="url(#SVG_CP_1)" fill="#CFD3FA" fill-rule="evenodd" stroke="#6E6E6E" stroke-width="0.47994" stroke-miterlimit="10" stroke-linecap="round" stroke-linejoin="round" d="
				M358.75417,412.90158L358.75417,413.38169L358.75417,413.86181L358.5142,414.58199L358.03427,415.54222L357.07439,416.2624L355.63457,417.22264
				L354.43473,417.4627L353.71482,417.94282L352.275,419.14311L351.07515,418.66299L348.19552,420.10335L347.71558,419.62323L346.99568,418.90305
				L346.0358,418.66299L344.35601,418.66299L342.67623,419.14311L340.75647,419.86329L340.5165,421.30364L340.5165,422.50394L339.7966,423.22411
				L339.55663,423.46417L338.35678,423.46417L337.15693,422.98406L336.43702,422.26388L335.95709,422.98406L334.99721,424.18435
				L334.2773,425.62471L333.55739,426.10482L332.83748,426.58494L331.87761,426.10482L330.43779,425.38465L328.51804,424.90453L
				327.55816,424.42441L326.83825,424.66447L325.6384,425.62471L324.43856,426.34488L322.99874,426.825L321.55893,427.06506L320.83902,426.825
				L319.3992,426.34488L319.15923,425.86476L317.95939,425.14459L315.79966,423.46417L314.11988,422.98406L311.96015,422.02382L
				310.52034,421.78376L308.60058,422.26388L307.88067,422.98406L306.9208,423.70423L305.96092,424.18435L305.48098,424.18435L305.00104,423.94429
				L303.80119,422.26388L302.12141,420.82352L301.16153,419.62323L300.68159,418.90305L300.68159,417.70276L300.44162,416.02234
				L298.52187,414.10187L297.56199,413.62175L296.12217,412.90158L295.64224,412.90158L295.40227,412.42146L295.1623,411.46122L
				294.92233,410.26093L294.68236,409.54075L293.72248,408.58051L293.00257,408.34045L293.00257,407.86034L293.48251,406.66004L
				293.96245,405.21969L294.44239,403.29921L294.92233,400.89862L295.40227,398.25797L295.64224,396.09744L298.2819,390.09597L296.36214,388.89567
				L292.7626,386.49508L290.36291,384.33455L285.08358,380.01348L278.84438,374.49213L273.80503,369.69095L269.48558,365.36988L
				265.64607,362.00906L263.72631,359.60847L261.80656,358.16811L258.44699,356.96782L254.60748,356.4877L251.00794,356.4877L250.76797,355.04734
				L250.76797,352.64675L250.528,350.72628L250.28803,348.32569L250.28803,346.64528L250.04806,344.48474L249.32815,343.28445L247.88834,341.84409
				L246.68849,341.12392L245.24867,340.6438L243.56889,340.16368L241.64913,340.16368L240.20932,340.16368L238.52953,338.72333L
				235.6499,335.84262L231.81039,331.04144L231.09048,329.36102L230.37057,327.92067L229.89063,326.48032L229.89063,324.31978L229.65067,322.63937
				L228.69079,321.43908L227.49094,320.47884L225.81116,319.03848L224.61131,318.31831L224.13137,317.59813L223.65143,316.87795
				L223.41146,316.15778L223.65143,314.71742L224.13137,313.27707L224.85128,312.31683L228.21085,313.51713L232.05036,314.47736
				L239.96935,317.35807L244.76873,308.47589L245.48864,308.71595L247.64837,309.43612L249.32815,310.1563L248.60824,309.19606L
				248.36827,308.47589L248.84821,307.75571L251.00794,307.75571L254.12754,307.99577L277.64453,312.07677L285.80349,313.27707L
				290.12294,298.39341L292.28266,290.71152L295.64224,270.78661L336.91696,284.46998L327.07822,311.59665L314.59981,349.76604L
				346.0358,358.64823L333.07745,391.29626L328.51804,404.97963L331.87761,406.17992L338.11681,407.62028L343.63611,408.10039L352.03503,410.50098
				L355.87454,412.1814L357.31436,412.66152L358.75417,412.90158z"/>
		</g>
		<g id="Labels">
			<g id="Kec_Serengan_-_Default">
				<g font-family="'Arial'" font-size="1" kerning="0" font-weight="400" fill="#000000" clip-path="url(#SVG_CP_1)" >
					<text text-anchor="start" transform="matrix(7.91899 0 0 7.92195 239.36942 335.84426)" >
						<tspan direction="ltr" unicode-bidi="embed" x="0 ">K</tspan>
						<tspan direction="ltr" unicode-bidi="embed" x="0.66692 ">e</tspan>
						<tspan direction="ltr" unicode-bidi="embed" x="1.21257 ">c</tspan>
						<tspan direction="ltr" unicode-bidi="embed" x="1.72792 ">a</tspan>
						<tspan direction="ltr" unicode-bidi="embed" x="2.27358 ">m</tspan>
						<tspan direction="ltr" unicode-bidi="embed" x="3.12238 ">a</tspan>
						<tspan direction="ltr" unicode-bidi="embed" x="3.69835 ">t</tspan>
						<tspan direction="ltr" unicode-bidi="embed" x="3.97118 ">a</tspan>
						<tspan direction="ltr" unicode-bidi="embed" x="4.51684 ">n</tspan>
						<tspan direction="ltr" unicode-bidi="embed" x="5.36564 ">S</tspan>
						<tspan direction="ltr" unicode-bidi="embed" x="6.03256 ">e</tspan>
						<tspan direction="ltr" unicode-bidi="embed" x="6.60853 ">r</tspan>
						<tspan direction="ltr" unicode-bidi="embed" x="6.94199 ">e</tspan>
						<tspan direction="ltr" unicode-bidi="embed" x="7.48765 ">n</tspan>
						<tspan direction="ltr" unicode-bidi="embed" x="8.06362 ">g</tspan>
						<tspan direction="ltr" unicode-bidi="embed" x="8.60928 ">a</tspan>
						<tspan direction="ltr" unicode-bidi="embed" x="9.18525 ">n</tspan>
					</text>
				</g>
			</g>
		</g>
	</g>
</svg>
