<?xml version="1.0" encoding="utf-8" standalone="no"?>
<!-- Creator: Esri ArcMap 10.5.0.6491 -->
<!DOCTYPE svg PUBLIC "-//W3C//DTD SVG 1.1//EN"  "http://www.w3.org/Graphics/SVG/1.1/DTD/svg11.dtd">
<svg width="610.49764pt" height="428.25827pt" viewBox="0 0 610.49764 428.25827" enable-background="new 0 0 610.49764 428.25827"
	version="1.1" xmlns="http://www.w3.org/2000/svg" xmlns:xlink="http://www.w3.org/1999/xlink" >
	<g id="Layers">
		<g id="Sungai">
			<clipPath id="SVG_CP_1">
				<path d="M0,428.25827L0,0L610.48202,0L610.48202,428.25827L0,428.25827z"/>
			</clipPath>
			<path clip-path="url(#SVG_CP_1)" fill="none" stroke="#8F0094" stroke-width="0.95988" stroke-miterlimit="10" stroke-linecap="round" stroke-linejoin="round" d="
				M197.97471,61.21506L200.37441,61.21506L202.53413,60.49488L203.49401,59.53465L204.93382,58.09429L205.8937,56.17382L206.61361,54.25335
				L208.05342,52.57293L209.97318,51.85276L212.1329,51.85276L214.29263,52.57293L216.21238,53.29311L217.41223,54.49341L219.33198,55.45364
				L220.7718,56.41388L221.97165,56.894L223.41146,56.65394L225.33122,55.6937L227.25097,54.97352L229.4107,54.97352L231.09048,55.6937
				L232.29033,56.41388L233.49017,57.61417L234.21008,59.05453L234.92999,60.49488L235.16996,62.65541L235.16996,64.57589L235.6499,66.2563
				L236.12984,67.21654L237.56965,67.69665L239.48941,68.41683L242.36904,67.93671L244.76873,67.21654L247.64837,66.97648L249.32815,66.97648
				L251.24791,67.69665L252.44775,69.13701L252.20778,72.49784L251.48788,74.65837L250.528,78.01919L249.80809,81.62008L248.84821,84.74085
				L248.84821,86.66132L249.08818,89.30197L250.04806,90.26221L251.72785,90.74232L255.56735,91.4625L258.44699,91.70256L262.04653,93.14291
				L263.96628,94.58327L265.16613,97.22392L266.12601,99.38445L266.84591,102.50522L266.84591,103.70551L266.36598,105.86604L265.4061,108.02658
				L264.20625,110.42717L263.48634,112.5877L263.24637,114.02805L263.0064,116.90876L262.2865,119.54941L261.32662,121.46988L259.1669,122.91024
				L257.96705,124.11053L257.00717,125.31083L256.7672,126.51112L256.7672,127.47136L257.48711,130.83219L257.72708,133.95295L257.96705,135.63337
				L258.68696,137.07372L260.36674,138.75413L262.76644,140.43455L265.16613,142.35502L268.5257,144.51555L270.20549,146.19597L
				273.32509,148.3565L277.1646,151.47726L280.76414,153.6378L285.32355,155.07815L292.52263,156.99862L296.60211,157.95886L302.84132,160.11939
				L308.84055,163.48022L315.79966,166.36093L322.99874,169.24163L329.47791,172.60246L337.87684,174.52293L344.35601,175.00305
				L352.75494,175.24311L357.55433,176.20335L362.35371,176.92352L367.39307,177.6437L375.07209,179.08406L379.63151,179.32411L
				400.74881,181.72471L412.26734,183.16506L415.62691,183.64518L420.66627,184.1253L423.78587,183.88524L430.26504,184.60541L433.14467,185.08553
				L435.3044,185.08553L437.70409,185.56565L440.58372,186.52589L445.62308,186.76595L449.46259,186.52589L453.3021,186.28583L457.38158,186.52589
				L461.22109,187.24606L463.38081,187.48612L465.54053,186.76595L468.1802,185.80571L470.57989,185.32559L473.69949,185.80571L
				475.61925,185.56565L477.29903,184.84547L479.93869,182.44488L482.57836,180.52441L484.73808,178.844L486.89781,177.6437L489.2975,176.68347
				L491.45722,175.96329L493.61695,175.00305L495.5367,174.28287L498.17636,172.84252L500.09612,171.16211L501.29597,169.72175L
				502.49581,168.04134L503.69566,166.60098L504.41557,165.16063L504.41557,163.48022L504.65554,161.7998L505.61541,159.15915L507.05523,156.99862
				L508.25508,155.79833L509.93486,154.83809L511.61465,154.59803L513.29443,154.83809L515.21419,155.55827L517.13394,156.03839
				L518.81373,156.99862L520.97345,157.7188L523.37315,158.19892L525.53287,158.19892L526.97269,157.95886L528.89244,157.95886L
				530.57223,158.43898L532.73195,158.67904L535.37161,158.91909L537.0514,158.91909L538.97115,158.19892L541.85079,156.03839L544.49045,153.87785
				L547.61005,151.71732L550.00974,150.03691L552.64941,149.79685L555.0491,149.31673L556.96885,147.87638L558.1687,146.19597L560.08846,145.47579
				L562.96809,146.43602L565.36778,147.63632L567.28754,148.59656L568.96732,148.59656L570.40714,147.63632L571.60698,145.71585
				L572.08692,143.79537L572.32689,141.8749L573.28677,139.95443L574.00668,139.47431L574.72659,139.95443L576.88631,141.63484L
				578.08616,142.59508L579.04603,142.83514L580.00591,142.11496L580.96579,141.15472L581.44573,139.47431L581.6857,137.55384L581.6857,135.15325
				L582.16564,133.95295L584.32536,133.71289L587.20499,133.95295L589.12475,134.67313L592.00438,135.63337L593.68416,136.5936L
				596.08386,137.55384L597.2837,138.75413L598.24358,140.43455L599.20346,142.35502L599.44343,144.03543L599.44343,145.23573L598.72352,146.91614
				L597.52367,148.83661L595.60392,153.39774L595.12398,155.55827L594.88401,158.67904L594.1641,161.7998L593.68416,165.40069L592.00438,170.92205
				L591.28447,176.68347L590.32459,180.76447L590.32459,185.80571L590.56456,190.12677L590.80453,194.20778L590.80453,197.32854
				L589.84465,200.68937L588.16487,205.73061L585.52521,210.53179L582.64557,211.97215L580.00591,211.97215L577.12628,211.49203
				L574.72659,210.53179L572.32689,210.05167L570.40714,211.25197L567.76748,214.13268L565.36778,217.01339L562.00821,220.85433
				L560.80836,223.73504L560.08846,226.37569L559.84849,231.17687L560.08846,233.81752L560.32843,237.17835L560.08846,241.49941
				L559.84849,244.86024L559.36855,247.26083L558.64864,249.66142L558.1687,251.58189L553.60928,261.66437L550.24971,268.62608L
				549.04987,273.42726L546.89014,276.54803L543.05063,278.4685L538.73118,279.90886L534.65171,280.86909L531.77207,281.10915L529.37238,280.86909
				L527.69259,280.62904L525.2929,279.42874L524.09305,278.70856L521.45339,277.26821L520.25354,276.54803L517.85385,276.54803L
				515.69413,277.74833L514.97422,278.94862L514.25431,280.86909L513.77437,282.54951L513.05446,284.71004L512.57453,286.63051L
				512.81449,287.83081L513.29443,289.27116L514.01434,290.47146L514.97422,292.15187L515.9341,293.59222L516.41403,295.5127L516.89397,298.39341
				L516.89397,299.83376L516.654,301.51417L516.17407,302.95453L515.21419,304.39488L514.25431,304.875L512.33456,305.11506L510.89474,304.875
				L508.97499,303.19459L507.2952,301.75423L504.65554,300.55394L502.49581,299.35364L498.6563,299.83376L495.5367,299.5937L492.17713,298.87352
				L489.77744,298.15335L487.85768,297.19311L485.93793,296.47293L484.25814,295.75276L482.33839,294.3124L479.69872,293.11211L
				477.29903,292.39193L474.65937,292.63199L472.01971,293.83228L470.57989,295.03258L469.14007,297.91329L467.94023,301.75423L
				467.70026,305.11506L467.22032,308.23583L466.98035,311.83671L466.50041,313.99724L465.54053,315.67766L463.62078,317.35807L
				460.98112,318.55837L458.82139,318.79843L456.90164,319.27854L452.82216,319.99872L450.1825,322.39931L448.50271,325.03996L447.54283,327.92067
				L447.54283,330.0812L447.54283,332.00167L447.54283,334.64232L447.54283,336.08268L447.30286,338.96339L447.06289,340.40374L
				446.34299,342.08415L443.70332,344.00463L440.10378,346.40522L437.46412,348.56575L436.74421,350.72628L436.26427,353.36693L
				437.22415,359.36841L437.94406,363.20935L437.70409,366.33012L436.98418,369.931L436.26427,373.53189L436.0243,375.93248L435.3044,379.05325
				L435.06443,381.45384L434.10455,386.9752L433.62461,389.85591L431.46489,395.13721L430.50501,396.81762L428.10532,397.77785L
				425.70562,397.77785L420.18633,398.01791L415.62691,398.97815L412.02737,400.89862L409.38771,403.05915L406.50807,405.6998L404.34835,408.34045
				L401.94866,410.50098L400.50884,413.38169L396.66933,416.98258L393.06979,420.58347L390.43013,423.46417L387.31053,425.14459
				L385.1508,424.90453L382.75111,423.70423L378.9116,420.58347L375.792,418.66299L372.43243,416.02234L368.11298,414.10187L363.31359,412.66152
				L359.47408,412.42146L356.35448,411.94134L356.35448,412.1814"/>
		</g>
	</g>
</svg>
