<?xml version="1.0" encoding="utf-8" standalone="no"?>
<!-- Creator: Esri ArcMap 10.5.0.6491 -->
<!DOCTYPE svg PUBLIC "-//W3C//DTD SVG 1.1//EN"  "http://www.w3.org/Graphics/SVG/1.1/DTD/svg11.dtd">
<svg width="610.49764pt" height="428.25827pt" viewBox="0 0 610.49764 428.25827" enable-background="new 0 0 610.49764 428.25827"
	version="1.1" xmlns="http://www.w3.org/2000/svg" xmlns:xlink="http://www.w3.org/1999/xlink" >
	<g id="Layers">
		<g id="Kec_Serengan">
			<clipPath id="SVG_CP_1">
				<path d="M0,428.25827L0,0L610.48202,0L610.48202,428.25827L0,428.25827z"/>
			</clipPath>
			<path clip-path="url(#SVG_CP_1)" fill="none" stroke="#000000" stroke-width="0.47994" stroke-miterlimit="10" stroke-linecap="round" stroke-linejoin="round" d="
				M358.75417,412.90158L358.75417,413.38169L358.75417,413.86181L358.5142,414.58199L358.03427,415.54222L357.07439,416.2624L355.63457,417.22264
				L354.43473,417.4627L353.71482,417.94282L352.275,419.14311L351.07515,418.66299L348.19552,420.10335L347.71558,419.62323L346.99568,418.90305
				L346.0358,418.66299L344.35601,418.66299L342.67623,419.14311L340.75647,419.86329L340.5165,421.30364L340.5165,422.50394L339.7966,423.22411
				L339.55663,423.46417L338.35678,423.46417L337.15693,422.98406L336.43702,422.26388L335.95709,422.98406L334.99721,424.18435
				L334.2773,425.62471L333.55739,426.10482L332.83748,426.58494L331.87761,426.10482L330.43779,425.38465L328.51804,424.90453L
				327.55816,424.42441L326.83825,424.66447L325.6384,425.62471L324.43856,426.34488L322.99874,426.825L321.55893,427.06506L320.83902,426.825
				L319.3992,426.34488L319.15923,425.86476L317.95939,425.14459L315.79966,423.46417L314.11988,422.98406L311.96015,422.02382L
				310.52034,421.78376L308.60058,422.26388L307.88067,422.98406L306.9208,423.70423L305.96092,424.18435L305.48098,424.18435L305.00104,423.94429
				L303.80119,422.26388L302.12141,420.82352L301.16153,419.62323L300.68159,418.90305L300.68159,417.70276L300.44162,416.02234
				L298.52187,414.10187L297.56199,413.62175L296.12217,412.90158L295.64224,412.90158L295.40227,412.42146L295.1623,411.46122L
				294.92233,410.26093L294.68236,409.54075L293.72248,408.58051L293.00257,408.34045L293.00257,407.86034L293.48251,406.66004L
				293.96245,405.21969L294.44239,403.29921L294.92233,400.89862L295.40227,398.25797L295.64224,396.09744L298.2819,390.09597L296.36214,388.89567
				L292.7626,386.49508L290.36291,384.33455L285.08358,380.01348L278.84438,374.49213L273.80503,369.69095L269.48558,365.36988L
				265.64607,362.00906L263.72631,359.60847L261.80656,358.16811L258.44699,356.96782L254.60748,356.4877L251.00794,356.4877L250.76797,355.04734
				L250.76797,352.64675L250.528,350.72628L250.28803,348.32569L250.28803,346.64528L250.04806,344.48474L249.32815,343.28445L247.88834,341.84409
				L246.68849,341.12392L245.24867,340.6438L243.56889,340.16368L241.64913,340.16368L240.20932,340.16368L238.52953,338.72333L
				235.6499,335.84262L231.81039,331.04144L231.09048,329.36102L230.37057,327.92067L229.89063,326.48032L229.89063,324.31978L229.65067,322.63937
				L228.69079,321.43908L227.49094,320.47884L225.81116,319.03848L224.61131,318.31831L224.13137,317.59813L223.65143,316.87795
				L223.41146,316.15778L223.65143,314.71742L224.13137,313.27707L224.85128,312.31683L228.21085,313.51713L232.05036,314.47736
				L239.96935,317.35807L244.76873,308.47589L245.48864,308.71595L247.64837,309.43612L249.32815,310.1563L248.60824,309.19606L
				248.36827,308.47589L248.84821,307.75571L251.00794,307.75571L254.12754,307.99577L277.64453,312.07677L285.80349,313.27707L
				290.12294,298.39341L292.28266,290.71152L295.64224,270.78661L336.91696,284.46998L327.07822,311.59665L314.59981,349.76604L
				346.0358,358.64823L333.07745,391.29626L328.51804,404.97963L331.87761,406.17992L338.11681,407.62028L343.63611,408.10039L352.03503,410.50098
				L355.87454,412.1814L357.31436,412.66152L358.75417,412.90158"/>
		</g>
		<g id="Kec_Pasar_Kliwon">
			<path clip-path="url(#SVG_CP_1)" fill="none" stroke="#000000" stroke-width="0.47994" stroke-miterlimit="10" stroke-linecap="round" stroke-linejoin="round" d="
				M454.022,320.95896L453.3021,321.19902L452.82216,321.43908L451.38234,322.63937L450.1825,324.55984L449.22262,327.44055L449.22262,330.56132
				L448.98265,334.16221L448.98265,337.28297L448.98265,340.16368L448.26274,341.84409L446.82292,343.28445L444.90317,344.7248L
				443.22338,346.16516L439.86381,348.56575L438.424,351.2064L438.18403,355.04734L438.424,358.64823L438.90394,361.28888L439.14391,364.64971
				L438.66397,367.0503L436.50424,378.33307L434.10455,391.29626L433.62461,393.45679L429.7851,398.25797L429.06519,398.25797L426.90547,398.25797
				L424.98571,398.25797L421.62614,398.25797L418.98648,398.25797L416.34682,398.49803L413.70715,399.21821L411.54743,400.65856
				L408.18786,404.01939L404.10838,408.10039L400.98878,412.42146L397.14927,416.98258L390.43013,423.94429L389.23028,424.66447
				L387.79046,424.90453L386.59062,425.14459L385.63074,425.14459L384.19092,424.66447L382.75111,423.70423L380.83135,422.744L378.9116,421.5437
				L376.99184,420.10335L373.63227,417.70276L371.47255,416.02234L367.39307,413.62175L362.83365,412.90158L358.75417,412.90158
				L357.31436,412.66152L355.87454,412.1814L352.03503,410.50098L343.63611,408.10039L338.11681,407.62028L335.95709,407.14016L
				331.87761,406.17992L328.51804,404.97963L333.07745,391.29626L346.0358,358.64823L314.59981,349.76604L327.07822,311.59665L336.91696,284.46998
				L344.83595,287.35069L348.43549,274.86762L348.19552,273.66732L346.75571,272.70709L345.07592,271.98691L342.9162,271.74685L
				341.95632,271.26673L342.19629,269.82638L343.15617,267.18573L344.83595,263.8249L346.0358,260.22402L346.51574,257.58337L347.23565,255.90295
				L347.47561,253.98248L347.47561,251.10177L347.71558,249.66142L349.63534,248.94124L352.99491,248.46112L356.59445,248.70118
				L358.99414,249.1813L360.19399,249.90148L360.67393,251.34183L364.75341,253.02224L371.23258,256.14301L372.43243,257.58337L
				372.6724,259.7439L372.43243,262.62461L372.43243,264.54508L373.15233,265.98543L374.83212,267.42579L375.31206,268.86614L375.31206,277.74833
				L375.31206,279.6688L376.03197,280.86909L378.9116,281.82933L381.31129,282.30945L389.71022,284.22992L391.62997,283.98986L395.70945,283.02963
				L399.06902,282.30945L400.98878,281.58927L403.1485,281.58927L405.06826,281.58927L405.78817,282.54951L406.98801,283.50974L
				407.22798,284.71004L407.70792,285.91034L407.70792,287.83081L407.46795,289.99134L407.46795,291.67175L407.46795,292.63199L
				406.98801,297.43317L406.98801,298.87352L406.74804,299.83376L406.98801,300.55394L407.94789,301.51417L408.90777,302.47441L
				409.86764,303.19459L410.58755,303.91476L412.26734,304.39488L413.70715,304.875L415.38694,305.35512L417.54666,305.83524L419.22645,306.31535
				L420.90623,306.79547L422.58602,307.51565L424.26581,307.75571L426.18556,307.75571L429.06519,308.71595L430.98495,309.91624
				L432.9047,310.39636L434.82446,310.87648L437.46412,311.35659L439.62384,311.35659L441.78357,311.59665L446.82292,311.35659L
				449.70256,312.07677L450.9024,313.03701L451.62231,313.99724L451.86228,315.19754L453.06213,317.83819L453.06213,318.79843L453.78204,320.47884
				L454.022,320.95896"/>
		</g>
		<g id="Kec_Laweyan">
			<path clip-path="url(#SVG_CP_1)" fill="none" stroke="#000000" stroke-width="0.47994" stroke-miterlimit="10" stroke-linecap="round" stroke-linejoin="round" d="
				M224.85128,312.31683L224.61131,311.35659L224.13137,309.91624L223.41146,308.47589L222.21162,307.27559L221.49171,305.83524
				L221.49171,304.39488L221.49171,302.47441L221.01177,300.794L220.53183,300.31388L219.09201,299.83376L217.41223,298.63347L215.73244,297.67323
				L213.57272,296.47293L210.69309,295.5127L208.29339,293.11211L206.37364,289.51122L205.41376,287.59075L200.85434,287.11063L
				197.2548,287.59075L193.41529,288.07087L190.77563,288.55098L188.13597,289.75128L185.97624,291.43169L183.81652,291.91181L181.89677,290.71152
				L179.01713,289.51122L175.41759,289.0311L171.09814,288.79104L167.4986,289.27116L162.93919,289.99134L160.53949,290.47146L157.89983,290.71152
				L155.98008,291.43169L154.30029,291.67175L153.34041,291.67175L152.38054,290.47146L151.66063,288.79104L151.18069,286.87057
				L150.22081,286.15039L150.22081,288.79104L149.98084,291.19163L149.5009,294.07234L149.98084,295.27264L149.74087,297.19311L
				149.26093,298.63347L148.06109,298.87352L144.70152,299.11358L143.02173,298.63347L141.58192,297.67323L139.90213,296.95305L
				138.46231,296.71299L136.54256,296.47293L135.10274,296.71299L133.66293,297.91329L132.70305,298.63347L131.5032,299.11358L129.10351,301.03406
				L126.22388,303.91476L124.06415,305.83524L118.54486,310.1563L117.34501,310.63642L116.14516,310.1563L114.46538,309.43612L112.30565,308.71595
				L110.3859,308.956L107.50627,310.39636L103.42679,313.51713L101.98697,313.51713L97.66752,313.51713L93.82802,313.27707L89.2686,313.03701
				L91.18835,310.1563L93.10811,306.31535L94.54792,302.95453L96.22771,298.87352L97.18759,296.23287L97.90749,293.83228L98.38743,291.91181
				L98.38743,289.51122L98.14746,287.11063L97.90749,284.71004L97.42756,283.02963L96.94762,281.10915L96.70765,279.42874L96.70765,277.26821
				L96.70765,274.3875L96.94762,271.98691L97.66752,268.86614L97.66752,266.22549L97.66752,264.54508L96.94762,264.30502L95.74777,264.30502
				L95.02786,263.8249L94.78789,262.86467L95.02786,261.90443L97.90749,252.54213L98.38743,249.42136L99.34731,245.82047L99.10734,242.69971
				L97.66752,240.29911L94.30795,238.37864L91.66829,237.65847L71.03093,223.73504L66.95145,222.29469L65.27166,221.57451L67.67136,212.93238
				L70.07105,206.21073L70.31102,203.81014L69.59111,201.64961L67.67136,201.64961L67.19142,200.68937L67.19142,190.84695L67.19142,189.16654
				L66.47151,187.96624L65.03169,187.006L9.11884,172.12234L21.1173,134.19301L21.59724,131.3123L23.03706,131.79242L24.47687,132.27254
				L26.87657,132.5126L30.47611,132.99272L36.47534,134.91319L41.75467,135.87343L45.35421,136.5936L48.95375,137.07372L51.83338,138.03396
				L54.47304,138.75413L56.3928,138.75413L57.83261,138.27402L59.03246,137.31378L61.19218,136.35354L63.59188,135.87343L66.95145,134.91319
				L70.07105,134.43307L72.23077,133.95295L75.11041,132.75266L78.23001,131.79242L80.6297,131.3123L82.06952,131.55236L83.26936,132.27254
				L85.18912,132.99272L86.8689,134.19301L88.78866,134.91319L90.70841,135.39331L92.86814,136.5936L95.26783,138.03396L97.66752,139.23425
				L100.54716,140.19449L104.1467,140.19449L106.78636,141.15472L111.10581,143.31526L116.86507,146.43602L120.22464,147.63632L
				121.42449,147.39626L122.62434,145.95591L123.82418,145.71585L125.264,145.71585L126.70382,145.71585L127.90366,145.47579L128.86354,143.55532
				L129.58345,141.63484L130.30336,140.91467L131.74317,141.15472L139.90213,143.55532L142.54179,144.51555L145.18146,144.75561
				L148.06109,144.51555L150.94072,144.51555L153.82035,144.75561L155.0202,145.47579L156.69998,146.19597L158.1398,146.67608L159.81959,147.39626
				L163.17916,150.27697L164.13903,150.75709L168.93842,150.99715L170.85818,152.19744L171.57808,155.31821L173.0179,157.95886L
				175.89753,161.07963L178.77716,163.48022L181.6568,165.40069L183.57655,166.60098L184.7764,167.56122L185.01637,168.76152L184.53643,170.20187
				L184.53643,171.88228L185.25634,172.84252L186.45618,172.84252L188.13597,172.12234L189.09585,172.3624L190.53566,173.80276L
				192.21545,174.52293L193.89523,174.28287L195.57502,173.32264L197.01483,171.64222L198.93459,169.72175L200.61437,169.24163L
				202.05419,169.24163L204.69385,170.20187L202.05419,172.12234L176.1375,218.45374L170.13827,217.97362L168.45848,223.01486L166.05879,224.93534
				L162.45925,225.89557L153.82035,223.49498L148.781,225.89557L161.49937,229.97658L238.7695,214.37274L233.73014,232.37717L239.00947,233.3374
				L242.60901,235.25787L246.44852,235.25787L246.44852,238.13858L252.20778,240.77923L257.24714,241.73947L257.72708,241.97953
				L257.72708,244.62018L278.60441,248.94124L277.40457,254.22254L279.56429,254.70266L280.76414,255.66289L281.48404,257.58337
				L288.20319,257.58337L289.16306,257.82343L292.52263,259.02372L289.643,267.66585L290.12294,268.86614L290.60288,269.1062L295.64224,270.78661
				L292.28266,290.71152L290.12294,298.39341L285.80349,313.27707L277.64453,312.07677L254.12754,307.99577L251.00794,307.75571
				L248.84821,307.75571L248.36827,308.47589L248.60824,309.19606L249.32815,310.1563L247.64837,309.43612L244.76873,308.47589L
				239.96935,317.35807L232.05036,314.47736L228.21085,313.51713L224.85128,312.31683"/>
		</g>
		<g id="Kec_Jebres">
			<path clip-path="url(#SVG_CP_1)" fill="none" stroke="#000000" stroke-width="0.47994" stroke-miterlimit="10" stroke-linecap="round" stroke-linejoin="round" d="
				M567.76748,109.22687L567.76748,111.3874L567.76748,112.34764L567.28754,113.78799L567.28754,115.46841L567.04757,117.14882L
				566.56763,118.34911L566.08769,118.82923L565.12781,119.06929L563.92797,118.82923L562.96809,118.34911L562.00821,118.34911L
				560.80836,119.06929L559.84849,119.78947L559.36855,121.22982L559.12858,121.70994L559.12858,122.91024L559.12858,124.11053L
				559.36855,125.79095L559.60852,126.99124L559.60852,128.67165L560.32843,129.63189L559.60852,130.59213L558.40867,132.27254L
				557.44879,133.47284L557.20882,134.43307L557.44879,136.5936L557.68876,138.03396L557.68876,139.23425L558.40867,139.71437L558.88861,139.95443
				L559.60852,140.19449L560.08846,141.15472L559.60852,141.63484L558.1687,142.11496L557.92873,142.59508L558.1687,143.55532L558.88861,144.75561
				L559.84849,144.99567L560.56839,144.99567L562.00821,144.99567L562.48815,145.71585L564.16793,146.91614L565.36778,147.63632
				L566.56763,148.11644L568.48738,148.59656L569.9272,147.87638L570.64711,147.1562L571.12705,145.95591L571.60698,144.51555L572.32689,142.35502
				L572.80683,140.91467L573.52674,139.71437L574.24665,138.75413L574.96656,138.99419L575.92643,139.95443L576.88631,140.91467
				L578.08616,141.8749L579.04603,142.35502L579.76594,142.11496L581.20576,141.39478L581.20576,138.99419L581.20576,136.83366L
				581.20576,135.15325L581.44573,133.71289L582.88554,133.23278L585.28524,133.23278L587.20499,133.47284L589.84465,134.19301L
				592.72429,135.39331L594.88401,136.11348L596.5638,137.07372L598.00361,138.27402L598.96349,139.71437L600.16334,141.15472L601.36318,143.0752
				L602.08309,144.27549L601.12321,144.75561L600.16334,145.71585L598.48355,148.11644L597.52367,149.55679L596.80377,151.23721
				L596.5638,153.15768L596.08386,155.31821L596.08386,157.7188L595.12398,161.31969L594.64404,165.40069L594.40407,167.56122L593.4442,172.12234
				L592.72429,175.72323L592.00438,178.844L591.28447,181.48465L591.28447,182.925L591.28447,184.60541L591.28447,187.006L591.52444,189.40659
				L591.52444,191.08701L591.52444,193.24754L591.76441,195.16801L591.76441,197.08848L591.28447,199.24902L590.32459,200.68937
				L589.60469,202.8499L589.12475,204.77037L588.40484,205.97067L587.9249,207.65108L587.20499,209.57156L586.24511,211.49203L584.8053,212.21221
				L583.60545,212.69232L581.44573,212.93238L579.04603,212.45226L577.36625,212.21221L575.20652,212.45226L572.56686,212.45226
				L570.88708,212.93238L569.68723,213.65256L568.48738,214.6128L567.04757,216.29321L565.36778,218.21368L564.16793,219.89409L
				562.96809,221.81457L562.48815,222.7748L562.00821,223.73504L561.52827,225.41545L561.2883,228.0561L561.04833,230.45669L561.04833,232.61722
				L561.2883,234.5377L561.2883,236.21811L561.2883,237.65847L561.2883,240.29911L561.2883,243.17982L561.2883,245.34035L561.04833,247.50089
				L560.32843,250.14154L559.60852,252.06201L559.12858,253.74242L558.40867,255.42284L558.1687,256.14301L557.44879,257.10325L
				556.96885,257.82343L556.00898,259.26378L555.76901,259.7439L555.0491,261.18425L554.32919,262.62461L553.84925,264.30502L553.12934,265.74537
				L552.88938,267.18573L551.9295,269.1062L550.72965,271.50679L550.72965,272.70709L550.00974,274.14744L549.76977,274.62756L549.28984,275.10768
				L548.56993,276.06791L547.13011,277.02815L546.4102,277.74833L544.73042,278.94862L542.57069,280.14892L540.89091,280.38898L
				539.45109,281.10915L537.53134,281.58927L536.09152,281.82933L533.9318,282.06939L532.25201,282.06939L530.8122,282.30945L529.13241,282.30945
				L527.69259,282.06939L525.2929,280.86909L524.33302,279.90886L522.89321,279.18868L521.45339,278.94862L520.49351,278.4685L519.53364,278.22845
				L518.57376,278.22845L517.37391,278.4685L516.41403,279.42874L515.69413,280.86909L514.97422,282.78957L514.01434,284.46998L
				513.77437,285.19016L513.77437,286.39045L513.77437,287.11063L513.77437,288.31093L514.49428,289.75128L515.9341,290.95158L517.13394,292.63199
				L517.61388,294.07234L517.85385,296.23287L518.09382,298.15335L518.09382,300.31388L518.33379,301.99429L518.09382,303.43465
				L517.61388,304.15482L516.89397,305.11506L515.69413,305.83524L512.81449,306.31535L510.65477,306.0753L509.45492,305.59518L
				508.73502,304.63494L508.25508,304.15482L507.05523,302.71447L506.57529,301.99429L505.13548,301.27411L503.45569,300.794L502.25584,300.07382
				L501.29597,300.07382L499.61618,300.07382L498.17636,300.07382L496.25661,299.5937L494.57682,299.5937L493.85692,299.5937L491.69719,298.87352
				L490.97728,298.87352L490.01741,298.39341L488.57759,297.91329L486.41787,296.95305L485.21802,296.71299L482.81833,295.75276
				L481.37851,295.03258L478.73885,294.07234L477.539,293.59222L476.33915,293.59222L475.61925,293.83228L474.4194,294.07234L473.45952,294.79252
				L472.25968,295.27264L471.53977,296.23287L470.81986,297.19311L470.33992,298.39341L469.38004,300.794L468.9001,302.71447L468.9001,303.91476
				L468.42017,305.11506L468.1802,306.31535L468.1802,307.75571L467.94023,309.43612L467.94023,310.63642L467.94023,312.07677L467.70026,313.27707
				L467.70026,314.2373L467.46029,315.19754L466.50041,316.15778L465.30056,317.35807L464.10072,318.07825L463.14084,318.79843L
				461.94099,319.27854L460.50118,319.5186L459.06136,319.5186L457.86151,320.23878L456.4217,320.47884L455.46182,320.7189L454.50194,320.95896
				L454.022,320.95896L453.78204,320.47884L453.06213,318.79843L453.06213,317.83819L452.58219,316.39784L451.86228,315.19754L451.62231,313.99724
				L450.9024,313.03701L449.70256,312.07677L448.98265,312.07677L446.82292,311.35659L445.14314,311.35659L443.46335,311.59665L
				441.78357,311.59665L439.62384,311.35659L437.46412,311.35659L434.82446,310.87648L432.9047,310.39636L430.98495,309.91624L429.06519,308.71595
				L426.18556,307.75571L424.26581,307.75571L422.58602,307.51565L420.90623,306.79547L419.22645,306.31535L417.54666,305.83524
				L415.38694,305.35512L413.70715,304.875L412.26734,304.39488L410.58755,303.91476L409.86764,303.19459L408.90777,302.47441L407.94789,301.51417
				L406.98801,300.55394L406.74804,299.83376L406.98801,298.87352L406.98801,297.43317L407.22798,295.75276L407.22798,294.55246
				L407.46795,292.63199L407.46795,291.67175L407.46795,289.99134L407.70792,287.83081L407.70792,285.91034L407.22798,284.71004
				L406.98801,283.50974L405.78817,282.54951L405.06826,281.58927L403.1485,281.58927L400.98878,281.58927L399.06902,282.30945L
				395.70945,283.02963L393.54973,283.7498L391.62997,283.98986L389.71022,284.22992L387.31053,283.7498L384.43089,283.02963L381.31129,282.30945
				L378.9116,281.82933L376.99184,281.34921L376.03197,280.86909L375.31206,279.6688L375.31206,277.74833L375.31206,275.82785L375.31206,271.98691
				L375.31206,268.86614L374.83212,267.42579L373.15233,265.98543L372.43243,264.54508L372.43243,262.62461L372.6724,259.7439L372.43243,257.58337
				L372.91237,256.62313L373.87224,255.18278L374.59215,253.50236L375.31206,250.62165L375.792,247.981L376.27194,244.86024L376.51191,241.73947
				L376.75188,237.65847L376.99184,234.77776L377.47178,230.69675L378.67163,224.69528L379.39154,218.93386L379.87148,215.81309
				L380.35142,214.13268L381.07132,212.93238L386.59062,213.65256L387.07056,213.17244L388.2704,205.01043L388.75034,203.57008L
				389.47025,202.12972L390.6701,202.12972L392.34988,202.12972L393.7897,202.60984L395.22951,202.12972L397.86918,202.12972L400.0289,202.12972
				L401.70869,202.12972L402.90853,201.88967L404.82829,200.20925L406.02814,198.52884L406.50807,196.60837L407.70792,193.4876L
				407.70792,191.56713L408.18786,190.12677L408.6678,188.92648L409.38771,188.2063L410.82752,188.2063L412.98725,188.44636L415.86688,188.44636
				L416.58679,187.96624L421.62614,186.76595L424.02584,186.28583L425.22568,183.64518L423.06596,183.40512L419.46642,183.16506
				L416.58679,183.40512L413.94712,182.925L412.02737,182.925L401.94866,181.96476L401.46872,181.00453L404.58832,163.72028L402.90853,163.0001
				L397.14927,162.03986L395.46948,161.55974L395.22951,160.59951L395.94942,156.99862L396.66933,152.91762L397.62921,149.07667
				L398.10915,144.51555L399.06902,140.19449L400.26887,133.95295L400.74881,132.27254L401.70869,132.75266L403.1485,132.99272L
				404.82829,134.19301L406.74804,134.91319L407.70792,135.15325L408.18786,134.91319L409.38771,134.67313L410.82752,132.27254L
				411.30746,129.63189L412.26734,127.47136L412.26734,125.79095L412.26734,124.59065L412.50731,122.67018L412.74728,120.74971L
				413.46719,118.58917L412.74728,117.869L411.7874,117.38888L409.86764,116.42864L407.94789,114.74823L406.02814,113.30787L403.38847,110.42717
				L401.70869,108.74675L399.54896,106.34616L398.58909,105.14587L397.38924,103.94557L394.98955,102.0251L393.7897,101.06486L393.06979,99.14439
				L392.82982,96.98386L392.82982,94.58327L393.54973,91.70256L394.02967,88.82185L394.50961,85.46102L394.50961,84.50079L394.50961,82.58032
				L394.50961,81.13996L394.26964,79.69961L393.7897,78.49931L393.54973,78.25925L391.86994,77.77913L390.19016,77.53908L390.43013,77.05896
				L391.15004,75.85866L391.62997,73.93819L392.58985,70.81742L393.7897,67.45659L393.7897,66.01624L394.26964,65.056L394.98955,64.81595
				L395.94942,64.81595L396.42936,64.57589L396.9093,63.61565L397.86918,62.1753L400.50884,58.57441L401.22875,57.37411L402.66856,56.65394
				L402.90853,56.65394L404.58832,56.41388L406.50807,56.17382L407.94789,55.93376L409.14774,54.49341L410.10761,53.53317L412.02737,51.85276
				L413.46719,48.97205L414.18709,49.93228L415.38694,50.4124L416.82676,51.37264L417.78663,52.09282L419.46642,53.29311L420.4263,54.25335
				L422.34605,55.45364L422.82599,56.894L423.5459,58.09429L424.02584,59.29459L424.02584,60.73494L424.74574,61.21506L426.18556,61.45512
				L430.26504,61.93524L431.94482,61.93524L433.86458,61.93524L436.50424,61.93524L438.90394,61.93524L440.34375,62.1753L441.30363,63.13553
				L443.22338,63.85571L445.38311,64.33583L448.26274,64.57589L449.46259,64.33583L451.38234,64.09577L454.022,63.85571L456.90164,63.61565
				L459.06136,63.37559L460.98112,63.61565L461.70102,62.89547L461.70102,61.69518L461.94099,60.49488L462.18096,59.77471L464.58066,59.53465
				L467.94023,59.05453L469.62001,59.29459L470.81986,60.25482L471.2998,60.975L472.25968,61.21506L472.97958,61.21506L475.13931,60.25482
				L477.29903,59.53465L479.69872,59.29459L481.61848,59.29459L483.29827,60.49488L485.21802,61.45512L486.89781,62.65541L487.61771,63.37559
				L488.33762,64.09577L489.2975,63.37559L490.01741,62.65541L491.45722,61.69518L492.4171,60.975L493.37698,60.975L496.73655,64.09577
				L499.61618,66.01624L502.25584,67.21654L503.93563,67.69665L505.85538,68.65689L507.53517,68.65689L510.65477,70.09724L512.81449,71.29754
				L513.5344,71.77766L514.01434,72.01772L515.69413,71.29754L517.61388,70.3373L521.45339,67.21654L526.01281,64.57589L527.21266,63.61565
				L528.17253,62.41535L528.89244,61.45512L530.8122,61.45512L534.41174,61.93524L537.0514,62.65541L539.45109,65.056L541.61082,67.45659
				L543.05063,69.13701L543.05063,71.29754L540.41097,72.25778L537.29137,73.45807L535.13164,74.41831L532.97192,75.6186L531.29213,76.57884
				L532.25201,77.77913L533.21189,78.97943L533.45186,80.8999L533.45186,82.34026L530.57223,83.30049L529.37238,84.02067L530.33226,85.46102
				L530.33226,87.62156L530.57223,90.26221L530.57223,92.42274L529.85232,94.10315L530.8122,96.02362L531.29213,97.94409L530.57223,99.38445
				L530.33226,101.06486L530.33226,102.74528L530.8122,103.70551L532.01204,104.18563L532.01204,105.38593L532.25201,106.82628L
				532.25201,108.02658L534.65171,107.54646L536.33149,107.06634L537.29137,105.38593L538.73118,104.66575L540.65094,105.62598L
				542.33072,106.58622L545.6903,106.58622L548.56993,106.34616L551.20959,106.58622L553.84925,107.3064L557.92873,107.54646L561.52827,107.78652
				L564.88784,108.26663L567.76748,109.22687"/>
		</g>
		<g id="Kec_banjarsari">
			<path clip-path="url(#SVG_CP_1)" fill="none" stroke="#000000" stroke-width="0.47994" stroke-miterlimit="10" stroke-linecap="round" stroke-linejoin="round" d="
				M406.50807,56.17382L402.90853,56.65394L400.50884,58.57441L397.86918,62.1753L396.9093,63.61565L395.94942,64.81595L394.26964,65.056
				L393.7897,67.45659L392.58985,70.81742L391.62997,73.93819L390.43013,77.05896L390.19016,77.53908L393.54973,78.25925L394.26964,79.69961
				L394.50961,82.58032L394.02967,88.82185L393.7897,90.02215L393.54973,91.70256L393.30976,92.6628L393.06979,93.86309L392.82982,94.58327
				L392.82982,95.5435L392.82982,96.50374L392.82982,96.98386L393.06979,99.14439L393.7897,101.06486L397.38924,103.94557L398.58909,105.38593
				L401.70869,108.74675L403.38847,110.42717L406.02814,113.30787L407.94789,114.74823L409.86764,116.42864L411.7874,117.38888L
				412.74728,117.869L413.46719,118.58917L412.74728,120.74971L412.50731,122.67018L412.26734,124.59065L412.26734,127.47136L411.30746,129.63189
				L410.82752,132.27254L409.38771,134.67313L408.18786,134.91319L407.70792,135.15325L404.82829,134.19301L403.1485,132.99272L
				401.70869,132.75266L400.74881,132.27254L400.26887,133.95295L399.06902,140.19449L398.10915,144.51555L397.62921,149.07667L
				396.66933,152.91762L395.94942,156.99862L395.22951,160.59951L395.46948,161.55974L397.14927,162.03986L402.90853,163.0001L404.58832,163.72028
				L402.90853,173.5627L401.46872,181.00453L401.94866,181.96476L412.02737,182.925L413.94712,182.925L416.58679,183.40512L419.46642,183.16506
				L423.06596,183.40512L425.22568,183.64518L424.02584,186.28583L421.62614,186.76595L416.58679,187.96624L415.86688,188.44636
				L409.38771,188.2063L408.6678,188.92648L407.70792,191.56713L407.70792,193.4876L406.02814,198.52884L404.82829,200.20925L402.90853,201.88967
				L401.70869,202.12972L397.86918,202.12972L395.22951,202.12972L393.7897,202.60984L392.34988,202.12972L389.47025,202.12972L
				388.75034,203.57008L387.07056,213.17244L386.59062,213.65256L381.07132,212.93238L380.35142,214.13268L379.87148,215.81309L
				378.67163,224.69528L377.47178,230.69675L376.99184,234.77776L376.75188,237.65847L376.51191,241.73947L376.27194,244.86024L
				375.31206,250.62165L374.59215,253.50236L373.87224,255.18278L372.91237,256.62313L372.43243,257.58337L371.23258,256.14301L
				364.75341,253.02224L360.67393,251.34183L360.19399,249.90148L358.99414,249.1813L356.59445,248.70118L352.99491,248.46112L349.63534,248.94124
				L347.71558,249.66142L347.47561,251.10177L347.47561,253.98248L347.23565,255.90295L346.51574,257.58337L346.0358,260.22402L
				344.83595,263.8249L343.15617,267.18573L342.19629,269.82638L341.95632,271.26673L342.9162,271.74685L345.07592,271.98691L346.75571,272.70709
				L348.19552,273.66732L348.43549,274.86762L344.83595,287.35069L337.3969,284.46998L290.60288,269.1062L290.12294,268.86614L289.643,267.66585
				L292.52263,259.02372L289.16306,257.82343L288.20319,257.58337L286.04346,257.58337L281.48404,257.58337L281.24407,256.86319
				L280.76414,255.66289L279.56429,254.70266L278.60441,254.4626L277.40457,254.22254L278.60441,248.94124L257.72708,244.62018L
				257.72708,241.97953L257.24714,241.73947L252.20778,240.77923L246.44852,238.13858L246.44852,235.25787L242.60901,235.25787L
				239.00947,233.3374L233.73014,232.37717L238.7695,214.37274L161.49937,229.97658L148.781,225.89557L153.82035,223.49498L159.09968,225.17539
				L162.45925,225.89557L166.05879,224.93534L168.45848,223.01486L170.13827,217.97362L176.1375,218.45374L202.05419,172.12234L
				204.69385,170.20187L202.05419,169.24163L200.61437,169.24163L198.93459,169.72175L197.01483,171.64222L195.57502,173.32264L
				193.89523,174.28287L192.21545,174.52293L190.53566,173.80276L189.09585,172.3624L188.13597,172.12234L186.45618,172.84252L185.25634,172.84252
				L184.53643,171.88228L184.53643,170.20187L185.01637,168.76152L184.7764,167.56122L183.57655,166.60098L181.6568,165.40069L178.77716,163.48022
				L175.89753,161.07963L173.0179,157.95886L171.57808,155.31821L170.85818,152.19744L171.57808,148.83661L192.69539,76.57884L195.33505,70.09724
				L197.73474,61.93524L197.97471,61.45512L200.13444,61.45512L202.05419,60.73494L203.49401,59.77471L204.69385,58.33435L205.65373,56.894
				L206.37364,54.97352L207.57349,53.05305L208.53336,51.85276L210.45312,51.6127L212.61284,51.85276L214.05266,52.09282L215.2525,52.57293
				L216.69232,53.29311L217.6522,54.01329L219.09201,54.97352L220.29186,55.6937L220.7718,56.17382L221.97165,56.65394L222.45159,56.41388
				L223.17149,55.93376L224.85128,55.21358L226.53106,54.49341L228.21085,54.25335L230.37057,54.49341L231.81039,55.45364L233.73014,57.13406
				L234.69002,58.33435L235.40993,60.01476L235.88987,61.69518L235.88987,63.37559L235.88987,65.056L236.84975,66.49636L237.56965,67.45659
				L238.52953,67.45659L240.44929,67.45659L241.8891,66.97648L242.36904,65.53612L242.60901,63.37559L242.36904,60.975L242.36904,58.81447
				L242.36904,57.37411L243.32892,55.6937L244.76873,53.53317L245.24867,51.85276L246.20855,49.93228L247.64837,47.53169L249.08818,45.37116
				L250.76797,43.69075L252.20778,42.49045L253.88757,41.53022L255.32739,40.56998L255.80732,39.8498L255.32739,38.88957L254.60748,38.16939
				L253.6476,37.20915L253.40763,36.48898L253.40763,35.28868L254.12754,34.5685L255.08742,33.84833L257.48711,33.60827L258.44699,33.60827
				L257.72708,31.92785L256.52723,30.72756L255.08742,29.52726L254.12754,28.08691L253.6476,27.12667L253.6476,25.2062L253.88757,23.52579
				L254.84745,22.32549L256.28726,20.88514L258.44699,19.68484L262.04653,16.56408L262.52647,11.28278L262.76644,9.3623L263.48634,8.88219
				L274.52493,3.60089L275.96475,3.60089L278.36444,4.80118L278.84438,4.80118L279.56429,4.56112L281.24407,3.36083L281.96398,2.40059
				L282.92386,1.2003L284.36368,0.96024L285.80349,2.40059L294.68236,33.12815L297.56199,33.60827L299.48175,34.32845L302.12141,34.08839
				L304.76107,33.36821L306.68083,32.64803L308.12064,32.40797L311.48021,34.32845L318.91926,34.08839L336.43702,38.40945L338.11681,39.36969
				L339.55663,36.96909L354.91466,44.65098L356.11451,36.24892L394.02967,48.49193L394.02967,52.81299L399.54896,52.33287L403.62844,53.29311
				L403.86841,55.6937L403.62844,55.6937L403.86841,55.6937L406.50807,56.17382"/>
		</g>
		<g id="Labels">
			<g id="Kec_Serengan_-_Default">
				<g font-family="'Arial'" font-size="1" kerning="0" font-weight="400" fill="#000000" clip-path="url(#SVG_CP_1)" >
					<text text-anchor="start" transform="matrix(7.91899 0 0 7.92195 239.36942 335.84426)" >
						<tspan direction="ltr" unicode-bidi="embed" x="0 ">K</tspan>
						<tspan direction="ltr" unicode-bidi="embed" x="0.66692 ">e</tspan>
						<tspan direction="ltr" unicode-bidi="embed" x="1.21257 ">c</tspan>
						<tspan direction="ltr" unicode-bidi="embed" x="1.72792 ">a</tspan>
						<tspan direction="ltr" unicode-bidi="embed" x="2.27358 ">m</tspan>
						<tspan direction="ltr" unicode-bidi="embed" x="3.12238 ">a</tspan>
						<tspan direction="ltr" unicode-bidi="embed" x="3.69835 ">t</tspan>
						<tspan direction="ltr" unicode-bidi="embed" x="3.97118 ">a</tspan>
						<tspan direction="ltr" unicode-bidi="embed" x="4.51684 ">n</tspan>
						<tspan direction="ltr" unicode-bidi="embed" x="5.36564 ">S</tspan>
						<tspan direction="ltr" unicode-bidi="embed" x="6.03256 ">e</tspan>
						<tspan direction="ltr" unicode-bidi="embed" x="6.60853 ">r</tspan>
						<tspan direction="ltr" unicode-bidi="embed" x="6.94199 ">e</tspan>
						<tspan direction="ltr" unicode-bidi="embed" x="7.48765 ">n</tspan>
						<tspan direction="ltr" unicode-bidi="embed" x="8.06362 ">g</tspan>
						<tspan direction="ltr" unicode-bidi="embed" x="8.60928 ">a</tspan>
						<tspan direction="ltr" unicode-bidi="embed" x="9.18525 ">n</tspan>
					</text>
				</g>
			</g>
			<g id="Kec_Pasar_Kliwon_-_Default">
				<g font-family="'Arial'" font-size="1" kerning="0" font-weight="400" fill="#000000" clip-path="url(#SVG_CP_1)" >
					<text text-anchor="start" transform="matrix(7.91899 0 0 7.92195 335.35716 345.92674)" >
						<tspan direction="ltr" unicode-bidi="embed" x="0 ">K</tspan>
						<tspan direction="ltr" unicode-bidi="embed" x="0.66692 ">e</tspan>
						<tspan direction="ltr" unicode-bidi="embed" x="1.21257 ">c</tspan>
						<tspan direction="ltr" unicode-bidi="embed" x="1.72792 ">a</tspan>
						<tspan direction="ltr" unicode-bidi="embed" x="2.27358 ">m</tspan>
						<tspan direction="ltr" unicode-bidi="embed" x="3.12238 ">a</tspan>
						<tspan direction="ltr" unicode-bidi="embed" x="3.69835 ">t</tspan>
						<tspan direction="ltr" unicode-bidi="embed" x="3.97118 ">a</tspan>
						<tspan direction="ltr" unicode-bidi="embed" x="4.51684 ">n</tspan>
						<tspan direction="ltr" unicode-bidi="embed" x="5.36564 ">P</tspan>
						<tspan direction="ltr" unicode-bidi="embed" x="6.03256 ">a</tspan>
						<tspan direction="ltr" unicode-bidi="embed" x="6.60853 ">s</tspan>
						<tspan direction="ltr" unicode-bidi="embed" x="7.09356 ">a</tspan>
						<tspan direction="ltr" unicode-bidi="embed" x="7.66953 ">r</tspan>
						<tspan direction="ltr" unicode-bidi="embed" x="8.27582 ">K</tspan>
						<tspan direction="ltr" unicode-bidi="embed" x="8.94274 ">l</tspan>
						<tspan direction="ltr" unicode-bidi="embed" x="9.18525 ">i</tspan>
						<tspan direction="ltr" unicode-bidi="embed" x="9.39745 ">w</tspan>
						<tspan direction="ltr" unicode-bidi="embed" x="10.125 ">o</tspan>
						<tspan direction="ltr" unicode-bidi="embed" x="10.70097 ">n</tspan>
					</text>
				</g>
			</g>
			<g id="Kec_Laweyan_-_Default">
				<g font-family="'Arial'" font-size="1" kerning="0" font-weight="400" fill="#000000" clip-path="url(#SVG_CP_1)" >
					<text text-anchor="start" transform="matrix(7.91899 0 0 7.92195 150.22081 261.18589)" >
						<tspan direction="ltr" unicode-bidi="embed" x="0 ">K</tspan>
						<tspan direction="ltr" unicode-bidi="embed" x="0.66692 ">e</tspan>
						<tspan direction="ltr" unicode-bidi="embed" x="1.21257 ">c</tspan>
						<tspan direction="ltr" unicode-bidi="embed" x="1.72792 ">a</tspan>
						<tspan direction="ltr" unicode-bidi="embed" x="2.27358 ">m</tspan>
						<tspan direction="ltr" unicode-bidi="embed" x="3.12238 ">a</tspan>
						<tspan direction="ltr" unicode-bidi="embed" x="3.69835 ">t</tspan>
						<tspan direction="ltr" unicode-bidi="embed" x="3.97118 ">a</tspan>
						<tspan direction="ltr" unicode-bidi="embed" x="4.51684 ">n</tspan>
						<tspan direction="ltr" unicode-bidi="embed" x="5.36564 ">L</tspan>
						<tspan direction="ltr" unicode-bidi="embed" x="5.94161 ">a</tspan>
						<tspan direction="ltr" unicode-bidi="embed" x="6.48727 ">w</tspan>
						<tspan direction="ltr" unicode-bidi="embed" x="7.21482 ">e</tspan>
						<tspan direction="ltr" unicode-bidi="embed" x="7.79079 ">y</tspan>
						<tspan direction="ltr" unicode-bidi="embed" x="8.27582 ">a</tspan>
						<tspan direction="ltr" unicode-bidi="embed" x="8.85179 ">n</tspan>
					</text>
				</g>
			</g>
			<g id="Kec_Jebres_-_Default">
				<g font-family="'Arial'" font-size="1" kerning="0" font-weight="400" fill="#000000" clip-path="url(#SVG_CP_1)" >
					<text text-anchor="start" transform="matrix(7.91899 0 0 7.92195 487.25776 187.48776)" >
						<tspan direction="ltr" unicode-bidi="embed" x="0 ">K</tspan>
						<tspan direction="ltr" unicode-bidi="embed" x="0.66692 ">e</tspan>
						<tspan direction="ltr" unicode-bidi="embed" x="1.21257 ">c</tspan>
						<tspan direction="ltr" unicode-bidi="embed" x="1.72792 ">.</tspan>
						<tspan direction="ltr" unicode-bidi="embed" x="2.27358 ">J</tspan>
						<tspan direction="ltr" unicode-bidi="embed" x="2.78892 ">e</tspan>
						<tspan direction="ltr" unicode-bidi="embed" x="3.33458 ">b</tspan>
						<tspan direction="ltr" unicode-bidi="embed" x="3.91055 ">r</tspan>
						<tspan direction="ltr" unicode-bidi="embed" x="4.24401 ">e</tspan>
						<tspan direction="ltr" unicode-bidi="embed" x="4.81998 ">s</tspan>
					</text>
				</g>
			</g>
			<g id="Kec_banjarsari_-_Default">
				<g font-family="'Arial'" font-size="1" kerning="0" font-weight="400" fill="#000000" clip-path="url(#SVG_CP_1)" >
					<text text-anchor="start" transform="matrix(7.91899 0 0 7.92195 246.80847 146.91778)" >
						<tspan direction="ltr" unicode-bidi="embed" x="0 ">K</tspan>
						<tspan direction="ltr" unicode-bidi="embed" x="0.66692 ">e</tspan>
						<tspan direction="ltr" unicode-bidi="embed" x="1.21257 ">c</tspan>
						<tspan direction="ltr" unicode-bidi="embed" x="1.72792 ">a</tspan>
						<tspan direction="ltr" unicode-bidi="embed" x="2.27358 ">m</tspan>
						<tspan direction="ltr" unicode-bidi="embed" x="3.12238 ">a</tspan>
						<tspan direction="ltr" unicode-bidi="embed" x="3.69835 ">t</tspan>
						<tspan direction="ltr" unicode-bidi="embed" x="3.97118 ">a</tspan>
						<tspan direction="ltr" unicode-bidi="embed" x="4.51684 ">n</tspan>
						<tspan direction="ltr" unicode-bidi="embed" x="5.36564 ">B</tspan>
						<tspan direction="ltr" unicode-bidi="embed" x="6.03256 ">a</tspan>
						<tspan direction="ltr" unicode-bidi="embed" x="6.60853 ">n</tspan>
						<tspan direction="ltr" unicode-bidi="embed" x="7.15419 ">j</tspan>
						<tspan direction="ltr" unicode-bidi="embed" x="7.3967 ">a</tspan>
						<tspan direction="ltr" unicode-bidi="embed" x="7.94236 ">r</tspan>
						<tspan direction="ltr" unicode-bidi="embed" x="8.27582 ">s</tspan>
						<tspan direction="ltr" unicode-bidi="embed" x="8.79116 ">a</tspan>
						<tspan direction="ltr" unicode-bidi="embed" x="9.33682 ">r</tspan>
						<tspan direction="ltr" unicode-bidi="embed" x="9.67028 ">i</tspan>
					</text>
				</g>
			</g>
		</g>
	</g>
</svg>
